<svg width="24" height="24" viewBox="0 0 24 24" fill="none" xmlns="http://www.w3.org/2000/svg">
<path d="M20.205 16.3922C17.736 19.6812 12.464 18.5712 9.083 18.7302C9.083 18.7302 8.484 18.7642 7.882 18.8632C7.882 18.8632 8.11 18.7662 8.401 18.6652C10.775 17.8442 11.897 17.6792 13.34 16.9382C16.05 15.5502 18.748 12.5252 19.297 9.38319C18.265 12.4052 15.127 15.0062 12.27 16.0622C10.315 16.7842 6.778 17.4862 6.777 17.4862L6.634 17.4102C4.229 16.2402 4.159 11.0302 8.528 9.35119C10.444 8.61519 12.275 9.01919 14.346 8.52619C16.554 8.00119 19.112 6.34619 20.151 4.18219C21.316 7.64019 22.716 13.0482 20.205 16.3922ZM20.247 3.11219C19.9678 3.78199 19.6103 4.4164 19.182 5.00219C18.2512 4.04275 17.1372 3.28006 15.9061 2.75939C14.6749 2.23872 13.3517 1.97069 12.015 1.97119C6.492 1.97119 2 6.46319 2 11.9852C1.99918 13.3626 2.2835 14.7254 2.83509 15.9876C3.38668 17.2497 4.19358 18.3841 5.205 19.3192L5.425 19.5132C5.26465 19.3526 5.17464 19.1348 5.17479 18.9079C5.17493 18.6809 5.2652 18.4633 5.42575 18.3029C5.58631 18.1425 5.804 18.0524 6.03096 18.0524C6.25793 18.0525 6.47558 18.1426 6.63607 18.3031C6.79656 18.4636 6.88674 18.6813 6.88679 18.9082C6.88683 19.1352 6.79674 19.3529 6.63632 19.5134C6.4759 19.674 6.25828 19.7643 6.03132 19.7644C5.80435 19.7646 5.58662 19.6745 5.426 19.5142L5.575 19.6462C7.37541 21.1683 9.65739 22.0025 12.015 22.0002C17.293 22.0002 21.628 17.8922 21.999 12.7082C22.273 10.1692 21.523 6.94519 20.247 3.11219Z" fill="#6DC628"/>
</svg>
