<svg width="16" height="16" viewBox="0 0 16 16" fill="none" xmlns="http://www.w3.org/2000/svg">
<g clip-path="url(#clip0_208_145)">
<path fill-rule="evenodd" clip-rule="evenodd" d="M10.9073 12.5174C10.9285 12.4768 10.9487 12.4409 10.966 12.4038C10.9768 12.38 10.9936 12.3753 11.0172 12.3759C11.1588 12.3799 11.3005 12.3843 11.4422 12.3856C11.5626 12.3869 11.6832 12.3846 11.8037 12.3833C11.9395 12.3816 12.0752 12.3745 12.2108 12.3784C12.3915 12.3836 12.5675 12.419 12.7308 12.4994C12.926 12.5955 13.0736 12.7419 13.1742 12.9348C13.2375 13.057 13.277 13.1902 13.2906 13.3273C13.3121 13.5283 13.298 13.7246 13.2342 13.9169C13.1552 14.1551 13.0052 14.3375 12.7968 14.4741C12.6365 14.5793 12.4606 14.6414 12.2721 14.6769C12.0726 14.7145 11.8725 14.7024 11.6723 14.703C11.4528 14.7039 11.2335 14.6991 11.014 14.6966C10.9756 14.6963 10.9701 14.689 10.9802 14.6524L10.9896 14.6186C11.011 14.5514 11.0225 14.5484 11.0907 14.5371C11.1391 14.5296 11.1854 14.512 11.2266 14.4855C11.2496 14.4703 11.2591 14.4305 11.2681 14.3999C11.2758 14.3731 11.2762 14.3438 11.2765 14.3155C11.2796 13.8874 11.2828 13.4594 11.2846 13.0315C11.2851 12.9233 11.2824 12.8151 11.2765 12.707C11.2722 12.6314 11.2318 12.5796 11.1418 12.5618C11.0718 12.5479 11.0013 12.5371 10.931 12.5248L10.9073 12.5174ZM12.9168 13.554C12.9073 13.4688 12.9027 13.3828 12.8875 13.2988C12.851 13.0971 12.7627 12.9215 12.6077 12.7839C12.3571 12.5615 12.0553 12.5273 11.7391 12.5538C11.6671 12.5598 11.6516 12.5844 11.6505 12.6584C11.6487 12.7634 11.647 12.8684 11.6468 12.9734C11.6463 13.3064 11.6463 13.6394 11.6468 13.9724C11.6468 14.0672 11.6481 14.1619 11.6507 14.2564C11.6537 14.3531 11.6888 14.435 11.7836 14.4725C11.933 14.5316 12.0901 14.5386 12.2468 14.5145C12.4972 14.4761 12.6723 14.3303 12.7898 14.1116C12.8828 13.9381 12.9091 13.7488 12.9168 13.554ZM13.5255 14.6879C13.5225 14.636 13.5437 14.5931 13.57 14.5538C13.5771 14.5431 13.6016 14.5436 13.6185 14.5403L13.7617 14.5119C13.8123 14.5011 13.839 14.4671 13.8461 14.4175C13.8508 14.3848 13.8553 14.3516 13.8557 14.3185C13.8591 14.0564 13.8616 13.7943 13.8631 13.5321C13.8643 13.2696 13.8633 13.0071 13.8633 12.7446L13.8622 12.6945C13.8571 12.6101 13.8163 12.5664 13.7326 12.554L13.551 12.5264C13.5286 12.5234 13.5205 12.5126 13.5286 12.4928C13.5426 12.4589 13.556 12.4238 13.5757 12.3933C13.5831 12.382 13.608 12.3776 13.6247 12.378C13.7115 12.3793 13.7982 12.3858 13.885 12.3856L14.6401 12.3811C14.7856 12.381 14.9261 12.4064 15.0566 12.476C15.2002 12.5525 15.2806 12.6709 15.3036 12.8321C15.3276 13.0015 15.2762 13.1443 15.1525 13.2576C15.1016 13.3044 15.0357 13.3349 14.9767 13.3729L14.9575 13.3849C15.0122 13.405 15.0643 13.4224 15.1151 13.4431C15.2636 13.504 15.3817 13.5991 15.4442 13.751C15.4936 13.8709 15.4936 13.9959 15.4643 14.1201C15.4188 14.3146 15.2907 14.444 15.1241 14.5419C14.9677 14.6338 14.7985 14.6873 14.6182 14.6963C14.452 14.7046 14.285 14.7015 14.1183 14.7034L14.0218 14.7039C13.8613 14.7002 13.7007 14.6962 13.5401 14.6919L13.5255 14.6879ZM14.2176 13.9268H14.2192C14.2192 14.009 14.2181 14.0913 14.2196 14.1735C14.2206 14.2268 14.2187 14.2815 14.2302 14.3328C14.2475 14.4094 14.2825 14.4785 14.3685 14.5005C14.4835 14.5306 14.6035 14.5359 14.7207 14.516C14.8678 14.4904 14.9852 14.4166 15.0496 14.2765C15.0973 14.1724 15.1045 14.062 15.0881 13.9493C15.0663 13.8008 14.9875 13.693 14.8563 13.6224C14.7703 13.576 14.6786 13.5476 14.5808 13.5439C14.4713 13.5398 14.3617 13.5395 14.2522 13.5361C14.2215 13.5353 14.2172 13.5509 14.2173 13.5761C14.218 13.6929 14.2176 13.8098 14.2176 13.9268ZM14.4507 13.3674C14.5106 13.3644 14.5783 13.3635 14.6457 13.3568C14.7747 13.3439 14.8656 13.279 14.913 13.1556C14.9371 13.093 14.9361 13.0285 14.9367 12.9634C14.9386 12.7938 14.8396 12.6548 14.6785 12.5973C14.5541 12.5529 14.4258 12.5521 14.2968 12.5556C14.2446 12.557 14.2212 12.5799 14.2205 12.6325L14.2127 13.3186C14.2123 13.3459 14.2241 13.3576 14.2506 13.3585L14.4507 13.3674Z" fill="#94795D"/>
<path fill-rule="evenodd" clip-rule="evenodd" d="M1.31793 14.556L1.30881 14.674C1.22381 14.674 1.14543 14.6734 1.06706 14.6743C0.919434 14.6758 0.771809 14.6781 0.624059 14.6803L0.609809 14.6811C0.588684 14.6786 0.550309 14.6786 0.549309 14.6724C0.543059 14.6373 0.545059 14.6004 0.546684 14.564C0.546809 14.5599 0.561184 14.5546 0.569559 14.5526L0.684434 14.527C0.756059 14.5084 0.781309 14.4775 0.784684 14.4035C0.788559 14.3201 0.792434 14.2366 0.792809 14.1533C0.793934 13.948 0.792684 13.743 0.793559 13.5378C0.793684 13.4898 0.777059 13.454 0.732309 13.4345C0.679132 13.4109 0.625584 13.3882 0.571684 13.3663C0.546184 13.356 0.513059 13.3504 0.516059 13.3161C0.519059 13.2813 0.551184 13.2721 0.581434 13.2653C0.706684 13.2366 0.832059 13.2088 0.956934 13.1783C0.997184 13.1684 1.03568 13.1518 1.08381 13.135C1.08631 13.161 1.09093 13.1858 1.09043 13.2105L1.08306 13.3281C1.08293 13.3414 1.08981 13.3591 1.09968 13.3665C1.10568 13.3711 1.12581 13.3628 1.13581 13.355C1.24256 13.2738 1.35556 13.2036 1.48443 13.1628C1.68406 13.0994 1.85543 13.1581 1.97543 13.3303C2.01768 13.3909 2.01781 13.3909 2.07643 13.3485C2.17706 13.2754 2.28231 13.2109 2.40006 13.1684C2.65856 13.075 2.90693 13.1935 2.99681 13.4539C3.02956 13.5484 3.04206 13.646 3.04181 13.7458L3.03943 14.408C3.03931 14.4626 3.05743 14.4938 3.10943 14.5108C3.16781 14.5299 3.22831 14.543 3.29406 14.5603L3.27881 14.6741C3.20406 14.6741 3.13531 14.6736 3.06656 14.6743C2.89856 14.6758 2.73056 14.6766 2.56268 14.6805C2.53343 14.6813 2.52581 14.674 2.52431 14.6466C2.51943 14.559 2.51868 14.5591 2.60118 14.5394L2.62893 14.5323C2.70956 14.5103 2.73643 14.4855 2.73706 14.4038C2.73893 14.169 2.74381 13.9336 2.73193 13.6994C2.71956 13.4564 2.52668 13.327 2.29118 13.3893C2.21518 13.4101 2.1436 13.4446 2.07993 13.491C2.05806 13.5066 2.05393 13.5246 2.05568 13.552C2.06243 13.6555 2.06631 13.7591 2.06731 13.8628C2.06881 14.0441 2.06656 14.2255 2.06731 14.407C2.06756 14.4805 2.09268 14.5086 2.16531 14.5256L2.27318 14.5505L2.29318 14.555C2.29468 14.5895 2.29606 14.624 2.29443 14.6585C2.29343 14.6801 2.27668 14.682 2.25793 14.6816C2.15306 14.679 2.04806 14.6755 1.94318 14.6758C1.81556 14.676 1.68806 14.6796 1.56056 14.6819H1.53056C1.53056 14.6453 1.52881 14.6103 1.53181 14.5754C1.53243 14.567 1.54718 14.5553 1.55731 14.5526L1.68306 14.526C1.73643 14.5129 1.76193 14.4855 1.76493 14.4313C1.77918 14.18 1.78943 13.9286 1.76581 13.6775C1.76004 13.6279 1.74628 13.5796 1.72506 13.5344C1.66068 13.3921 1.51581 13.3328 1.34868 13.3755C1.26931 13.3958 1.19768 13.4321 1.12993 13.478C1.1152 13.4872 1.1031 13.5 1.09482 13.5152C1.08653 13.5304 1.08235 13.5475 1.08268 13.5649C1.08285 13.8156 1.08339 14.0661 1.08431 14.3166L1.08568 14.4133C1.08718 14.4806 1.11581 14.5161 1.18268 14.5306C1.22568 14.5404 1.26918 14.547 1.31793 14.556Z" fill="#50382B"/>
<path fill-rule="evenodd" clip-rule="evenodd" d="M8.87515 13.1606C8.89452 13.2549 8.89415 13.3396 8.8249 13.4039C8.75615 13.4677 8.66915 13.4462 8.58427 13.432C8.59215 13.4767 8.6009 13.5147 8.60515 13.5532C8.63602 13.8394 8.5129 14.0517 8.24752 14.1731C8.14727 14.2189 8.0409 14.2359 7.93227 14.2446C7.87827 14.2489 7.83102 14.2901 7.8259 14.3345C7.82065 14.3795 7.8489 14.4257 7.9054 14.4392C7.97202 14.4551 8.04152 14.4596 8.1099 14.4675C8.25665 14.4842 8.40502 14.4919 8.55002 14.5181C8.76927 14.5576 8.89165 14.749 8.85302 14.9692C8.81865 15.1652 8.70515 15.3079 8.5469 15.4172C8.28027 15.602 7.98777 15.656 7.67627 15.5617C7.49815 15.5077 7.37252 15.3906 7.32915 15.2011C7.3074 15.1062 7.33052 15.0204 7.4019 14.956C7.48677 14.8797 7.57915 14.8117 7.66802 14.7397L7.69677 14.7109L7.66377 14.6877C7.57315 14.6447 7.50065 14.5859 7.47252 14.4836C7.4629 14.449 7.4729 14.4262 7.50227 14.4085C7.55227 14.3784 7.60198 14.3478 7.6514 14.3166C7.67465 14.3021 7.69765 14.2871 7.71927 14.2704C7.74877 14.2479 7.74615 14.2311 7.7109 14.2181C7.6289 14.1879 7.55602 14.144 7.49952 14.0765C7.40515 13.9639 7.3784 13.8297 7.38615 13.6881C7.39827 13.4669 7.5184 13.3211 7.71365 13.2274C7.94577 13.116 8.17865 13.109 8.41527 13.2105C8.50277 13.248 8.59502 13.256 8.6889 13.2495C8.75902 13.2445 8.82027 13.218 8.87515 13.1606ZM8.01977 14.7457C7.84552 14.7442 7.7909 14.7657 7.68865 14.8699C7.57415 14.9866 7.57477 15.1485 7.68902 15.2657C7.77577 15.3546 7.88402 15.3962 8.0044 15.4087C8.14502 15.4232 8.28352 15.4174 8.41127 15.347C8.54752 15.2716 8.61527 15.1316 8.58465 14.9906C8.55927 14.8742 8.47352 14.821 8.36915 14.7904C8.2504 14.7556 8.12765 14.749 8.01977 14.7457ZM7.67752 13.6322C7.6839 13.6806 7.68652 13.7296 7.69727 13.777C7.72515 13.8997 7.77852 14.0076 7.90065 14.0622C8.04402 14.1266 8.22715 14.099 8.2899 13.8977C8.3328 13.7638 8.32781 13.6191 8.27577 13.4885C8.25382 13.4287 8.21413 13.3771 8.16202 13.3405C8.03752 13.2536 7.8129 13.2421 7.7214 13.4341C7.69165 13.4965 7.68002 13.5629 7.67752 13.6322Z" fill="#4F382B"/>
<path fill-rule="evenodd" clip-rule="evenodd" d="M5.91877 13.1297C5.92339 13.1511 5.93264 13.1754 5.93289 13.1997C5.93327 13.2461 5.92827 13.2925 5.92564 13.3389V13.3791L5.96489 13.3491C6.07239 13.2606 6.18789 13.1852 6.32239 13.1446C6.56514 13.0715 6.80764 13.2044 6.88677 13.4516C6.91677 13.5456 6.92864 13.6422 6.92977 13.7405C6.93227 13.9587 6.93377 14.177 6.93602 14.3952C6.93677 14.4736 6.94577 14.4876 7.01989 14.5102C7.06207 14.5228 7.1051 14.5324 7.14864 14.5389C7.17252 14.5426 7.18277 14.552 7.18152 14.5754L7.18177 14.5969C7.18089 14.6872 7.17464 14.6914 7.08702 14.6911C6.87727 14.6907 6.66764 14.692 6.45789 14.6937C6.39539 14.6942 6.39527 14.6961 6.38902 14.6344L6.38777 14.5989C6.39164 14.5456 6.39289 14.5461 6.44527 14.5384C6.48052 14.5331 6.51552 14.525 6.54989 14.516C6.58527 14.5069 6.60227 14.4807 6.60702 14.4457C6.60939 14.428 6.61252 14.4102 6.61239 14.3925C6.60939 14.154 6.61327 13.9152 6.60027 13.6771C6.58977 13.4845 6.44277 13.3697 6.24939 13.3829C6.15618 13.3893 6.06658 13.4215 5.99052 13.4757C5.93889 13.5119 5.92852 13.564 5.92877 13.6201C5.92993 13.8431 5.93177 14.0662 5.93427 14.2892C5.93477 14.3381 5.93614 14.387 5.94077 14.4355C5.94564 14.4885 5.96427 14.5099 6.01627 14.5214C6.06602 14.5324 6.11677 14.5387 6.16989 14.5476L6.17439 14.5886C6.17614 14.6842 6.16614 14.6914 6.07327 14.691C5.85639 14.6901 5.63952 14.6915 5.42277 14.6939C5.38864 14.6944 5.37414 14.6836 5.37502 14.6504L5.37452 14.6361C5.36889 14.55 5.37139 14.5467 5.45289 14.5327L5.49139 14.525C5.57964 14.5051 5.60227 14.4816 5.60352 14.392C5.60764 14.1081 5.60914 13.8244 5.61202 13.5405C5.61239 13.4997 5.59702 13.4681 5.55902 13.4512C5.50569 13.4279 5.45206 13.4052 5.39814 13.3832C5.36839 13.371 5.33439 13.3632 5.33327 13.3221C5.33252 13.2931 5.36352 13.2675 5.40589 13.2589C5.49102 13.2416 5.57689 13.2272 5.66102 13.2061C5.74477 13.1852 5.82702 13.1572 5.91877 13.1297Z" fill="#4F372B"/>
<path fill-rule="evenodd" clip-rule="evenodd" d="M10.6081 13.8712C10.6041 14.1364 10.5352 14.3507 10.3477 14.5116C10.1102 14.7157 9.73969 14.7851 9.43682 14.6325C9.30757 14.5674 9.21257 14.4675 9.15069 14.3379C9.05582 14.1385 9.03207 13.9289 9.08157 13.7141C9.13057 13.5017 9.25919 13.3479 9.45169 13.2482C9.64969 13.1459 9.85819 13.1059 10.0781 13.1596C10.3562 13.2275 10.5561 13.4542 10.5958 13.743C10.6029 13.7936 10.6057 13.8449 10.6081 13.8712ZM10.2859 14.0149L10.2752 14.0136C10.2752 13.9886 10.2766 13.9636 10.2749 13.9386C10.2658 13.7829 10.2308 13.6345 10.1406 13.5041C10.0549 13.3806 9.93832 13.3077 9.78657 13.2971C9.61669 13.2851 9.47394 13.3801 9.42382 13.5536C9.34857 13.8141 9.37407 14.068 9.50632 14.3066C9.56394 14.4106 9.64932 14.4874 9.76369 14.5277C9.98782 14.6066 10.1866 14.5045 10.2449 14.275C10.2664 14.1902 10.2727 14.1016 10.2859 14.0149Z" fill="#4F382B"/>
<path fill-rule="evenodd" clip-rule="evenodd" d="M5.10235 13.8918C5.09772 14.082 5.05285 14.2579 4.93535 14.4108C4.80947 14.5745 4.63647 14.662 4.43972 14.6989C4.2071 14.7424 3.9886 14.7029 3.80172 14.5468C3.71297 14.4725 3.65235 14.3774 3.61235 14.2691C3.54672 14.0916 3.53035 13.9098 3.57072 13.7244C3.61385 13.526 3.72585 13.3744 3.89947 13.2726C4.10022 13.1553 4.31685 13.1029 4.54822 13.1556C4.84572 13.2236 5.01747 13.4175 5.08097 13.711C5.09372 13.7703 5.09547 13.8315 5.10235 13.8918ZM4.7766 14.0173L4.76797 14.016V13.9803C4.7631 13.8058 4.72897 13.6395 4.62485 13.4945C4.54772 13.3869 4.44447 13.3194 4.3121 13.3005C4.09635 13.2698 3.95535 13.3978 3.9086 13.5716C3.8476 13.7988 3.86672 14.0231 3.9611 14.2385C4.01997 14.3728 4.11297 14.4774 4.25585 14.5281C4.4786 14.6073 4.68035 14.5025 4.73672 14.2739C4.75747 14.1903 4.76372 14.103 4.7766 14.0173Z" fill="#4F372B"/>
<path fill-rule="evenodd" clip-rule="evenodd" d="M10.2953 4.19299C10.4486 4.63637 10.5589 5.08899 10.5953 5.55799C10.6403 6.13999 10.6198 6.71799 10.497 7.29037L10.4813 7.33612C10.4428 7.33624 10.4035 7.33137 10.3659 7.33724C10.048 7.38724 9.73051 7.43899 9.41288 7.49049C9.08451 7.54374 8.75588 7.59487 8.42813 7.65162C8.31201 7.67162 8.16826 7.64774 8.12138 7.80824L8.09888 7.81587L8.11476 6.85612L8.09863 4.54037L8.25163 4.51412C8.50176 4.47324 8.75188 4.43162 9.00238 4.39174C9.30113 4.34437 9.60013 4.29812 9.89913 4.25187C10.0311 4.23162 10.1633 4.21274 10.2953 4.19299Z" fill="#439934"/>
<path fill-rule="evenodd" clip-rule="evenodd" d="M7.78311 10.6139C7.62174 10.4751 7.45474 10.3425 7.30011 10.1965C6.46786 9.4115 5.85899 8.48738 5.55911 7.37325C5.47649 7.06675 5.42149 6.75513 5.40374 6.43838C5.39124 6.21663 5.37336 5.993 5.38911 5.77238C5.43074 5.18575 5.51561 4.60475 5.68761 4.03963L5.69711 4.0265C5.71386 4.04875 5.73786 4.0685 5.74636 4.09363C5.91428 4.58813 6.08111 5.08309 6.24686 5.5785C6.76799 7.13488 7.28849 8.69163 7.81049 10.2478C7.82074 10.2781 7.84711 10.303 7.86611 10.3304L7.78311 10.6139Z" fill="#45A538"/>
<path fill-rule="evenodd" clip-rule="evenodd" d="M10.2953 4.193C10.1631 4.21263 10.031 4.23163 9.89913 4.25188C9.60013 4.29813 9.30113 4.34438 9.00238 4.39175C8.752 4.4315 8.50188 4.47313 8.25163 4.51413L8.09863 4.54038L8.09738 4.44063C8.09225 4.35863 8.08375 4.27663 8.08263 4.19463L8.0655 2.62538C8.0615 2.298 8.0555 1.97063 8.04888 1.64338C8.04551 1.43998 8.03964 1.23663 8.03125 1.03338C8.02625 0.924252 8.00863 0.815627 8.00163 0.706502C7.9975 0.643752 8.003 0.580502 8.00438 0.517502C8.08238 0.668627 8.15875 0.820877 8.23888 0.970877C8.3655 1.208 8.56738 1.38275 8.74925 1.57338C9.4675 2.32725 9.97738 3.20325 10.2953 4.193Z" fill="#46A037"/>
<path fill-rule="evenodd" clip-rule="evenodd" d="M8.09902 7.81588L8.12152 7.80826C8.1684 7.64776 8.31215 7.67163 8.42827 7.65163C8.75602 7.59488 9.08465 7.54376 9.41302 7.49051C9.73065 7.43913 10.0481 7.38738 10.366 7.33726C10.4036 7.33138 10.4429 7.33626 10.4814 7.33613C10.422 7.54813 10.3753 7.76476 10.2999 7.97088C10.2143 8.20463 10.1108 8.43288 10.0009 8.65663C9.8363 8.9903 9.63267 9.30324 9.39427 9.58888C9.21102 9.80913 9.00677 10.013 8.80215 10.2141C8.6889 10.3253 8.55565 10.4159 8.4314 10.5159L8.39915 10.4939L8.28327 10.3949L8.1634 10.1319C8.08155 9.82518 8.03686 9.50975 8.03027 9.19238L8.03252 9.13888L8.0489 8.90713C8.05427 8.82801 8.06152 8.74901 8.0649 8.66988C8.0769 8.38538 8.08765 8.10063 8.09902 7.81588Z" fill="#409433"/>
<path fill-rule="evenodd" clip-rule="evenodd" d="M8.09902 7.81588C8.08777 8.10063 8.07702 8.38551 8.06489 8.67026C8.06152 8.74951 8.05439 8.82851 8.04889 8.90751L7.97589 8.93513C7.81364 8.45751 7.65127 7.98488 7.49252 7.51113C7.22989 6.72726 6.97052 5.94226 6.70827 5.15813C6.4965 4.5253 6.28325 3.89297 6.06852 3.26113C6.05839 3.23163 6.02964 3.20838 6.00964 3.18226L6.47714 2.32263C6.49327 2.35051 6.51439 2.37663 6.52452 2.40663C6.74077 3.04663 6.95664 3.68676 7.17064 4.32751C7.44914 5.16126 7.72577 5.99538 8.00402 6.82926C8.01514 6.86251 8.03339 6.89326 8.05089 6.93063L8.11489 6.85613L8.09902 7.81588Z" fill="#4FAA41"/>
<path fill-rule="evenodd" clip-rule="evenodd" d="M6.00952 3.18225C6.02965 3.20838 6.0584 3.23163 6.0684 3.26113C6.28314 3.89295 6.49639 4.52529 6.70815 5.15813C6.9704 5.94225 7.22977 6.72725 7.4924 7.51113C7.65115 7.98488 7.81352 8.45738 7.97577 8.93513L8.04877 8.9075L8.0324 9.13925L8.01752 9.19263C7.99215 9.44625 7.97077 9.70038 7.93977 9.9535C7.92427 10.0804 7.89115 10.2049 7.86602 10.3304C7.84715 10.303 7.82065 10.2781 7.8104 10.2478C7.28827 8.69163 6.7679 7.13488 6.24677 5.5785C6.08097 5.0832 5.91414 4.58824 5.74627 4.09363C5.73777 4.0685 5.71377 4.04875 5.69702 4.0265L6.00952 3.18225Z" fill="#4AA73C"/>
<path fill-rule="evenodd" clip-rule="evenodd" d="M8.1148 6.85612L8.0508 6.93062C8.0333 6.89324 8.01505 6.86249 8.00393 6.82924C7.72568 5.99537 7.44905 5.16124 7.17055 4.32749C6.9563 3.68682 6.74092 3.04653 6.52443 2.40662C6.5143 2.37662 6.49318 2.35049 6.47705 2.32262L7.05518 1.56212C7.07343 1.58637 7.09943 1.60799 7.1088 1.63537C7.26922 2.10537 7.42847 2.57574 7.58655 3.04649C7.7343 3.48624 7.8798 3.92649 8.0293 4.36549C8.0393 4.39487 8.07418 4.41562 8.09743 4.44062L8.09868 4.54037L8.1148 6.85612Z" fill="#57AE47"/>
<path fill-rule="evenodd" clip-rule="evenodd" d="M8.09743 4.44062C8.07405 4.41575 8.0393 4.395 8.0293 4.3655C7.87993 3.9265 7.7343 3.48625 7.58655 3.0465C7.42842 2.57574 7.26917 2.10537 7.1088 1.63537C7.09943 1.608 7.07343 1.58637 7.05518 1.56212C7.24318 1.378 7.4253 1.18725 7.62093 1.01162C7.7948 0.855624 7.93455 0.688374 7.94105 0.441749L7.9548 0.392624L8.0043 0.517374C8.00305 0.580374 7.99743 0.643624 8.00155 0.706374C8.00868 0.815499 8.0263 0.924124 8.03118 1.03325C8.0403 1.23637 8.04468 1.43987 8.0488 1.64325C8.05543 1.9705 8.06143 2.29787 8.06543 2.62525L8.08255 4.1945C8.0838 4.27662 8.09243 4.35862 8.09743 4.44062Z" fill="#60B24F"/>
<path fill-rule="evenodd" clip-rule="evenodd" d="M7.86608 10.3302C7.89121 10.2047 7.92433 10.0802 7.93983 9.95337C7.97083 9.70037 7.99221 9.44612 8.01758 9.1925L8.02396 9.1915L8.03021 9.19262C8.03679 9.50999 8.08149 9.82542 8.16333 10.1321C8.14646 10.1544 8.12283 10.174 8.11383 10.199C8.04446 10.3947 7.97896 10.5921 7.90921 10.7877C7.89971 10.8145 7.87296 10.8354 7.85433 10.8587L7.78296 10.6137L7.86608 10.3302Z" fill="#A9AA88"/>
<path fill-rule="evenodd" clip-rule="evenodd" d="M7.85437 10.8589C7.873 10.8354 7.89975 10.8146 7.90925 10.7879C7.979 10.5922 8.0445 10.3949 8.11387 10.1991C8.12275 10.1741 8.1465 10.1545 8.16337 10.1322L8.28325 10.3952C8.25962 10.4287 8.22687 10.4591 8.21375 10.4965L7.98425 11.1705C7.97475 11.1976 7.94262 11.2166 7.92087 11.2395L7.85437 10.8589Z" fill="#B6B598"/>
<path fill-rule="evenodd" clip-rule="evenodd" d="M7.9209 11.2394C7.94252 11.2165 7.97477 11.1975 7.98427 11.1704L8.21377 10.4964C8.22677 10.459 8.25965 10.4286 8.28327 10.3951L8.39927 10.494C8.34327 10.5494 8.31215 10.6134 8.3309 10.6943L8.29565 10.8096C8.27965 10.8294 8.2564 10.8466 8.24852 10.8693C8.1684 11.0988 8.09202 11.3295 8.01127 11.5589C8.00102 11.5879 7.97265 11.6108 7.95277 11.6365L7.9209 11.2394Z" fill="#C2C1A7"/>
<path fill-rule="evenodd" clip-rule="evenodd" d="M7.95268 11.6364C7.97268 11.6106 8.00106 11.5877 8.01118 11.5587C8.09193 11.3294 8.16843 11.0986 8.24843 10.8691C8.25631 10.8465 8.27956 10.8294 8.29556 10.8095L8.24693 11.339C8.23393 11.354 8.21518 11.3671 8.20893 11.3845L8.04718 11.848C8.03581 11.8796 8.01406 11.9079 7.99706 11.9375C7.98193 11.9177 7.95493 11.8986 7.95368 11.8781C7.94893 11.7979 7.95231 11.717 7.95268 11.6364Z" fill="#CECDB7"/>
<path fill-rule="evenodd" clip-rule="evenodd" d="M7.99707 11.9376C8.01407 11.908 8.03582 11.8798 8.04719 11.8481L8.20894 11.3846C8.21519 11.3671 8.23407 11.3541 8.24694 11.3391L8.2482 11.6866L8.13182 11.985L7.99707 11.9376Z" fill="#DBDAC7"/>
<path fill-rule="evenodd" clip-rule="evenodd" d="M8.13184 11.985L8.24821 11.6866L8.27221 12.0396L8.13184 11.985Z" fill="#EBE9DC"/>
<path fill-rule="evenodd" clip-rule="evenodd" d="M8.33074 10.6943C8.31211 10.6135 8.34311 10.5495 8.39911 10.494L8.43136 10.516L8.33074 10.6943Z" fill="#CECDB7"/>
<path fill-rule="evenodd" clip-rule="evenodd" d="M8.0302 9.19275L8.02395 9.19163L8.01758 9.19263L8.03245 9.13925L8.0302 9.19275Z" fill="#4FAA41"/>
</g>
<defs>
<clipPath id="clip0_208_145">
<rect width="16" height="16" fill="white"/>
</clipPath>
</defs>
</svg>
