<svg width="16" height="16" viewBox="0 0 16 16" fill="none" xmlns="http://www.w3.org/2000/svg">
<path d="M3.0625 6.3125C2.875 6.3125 2.75 6.4625 2.75 6.65V8.4125L0.7625 6.4125C0.6625 6.3125 0.4875 6.2875 0.3625 6.3375C0.2375 6.3875 0.125 6.5125 0.125 6.65V9.2375C0.125 9.425 0.3125 9.575 0.5 9.575C0.6875 9.575 0.875 9.425 0.875 9.2375V7.475L2.8875 9.475C2.95 9.5375 3.0375 9.575 3.125 9.575C3.1625 9.575 3.175 9.5625 3.2125 9.55C3.3375 9.5 3.375 9.375 3.375 9.2375V6.6625C3.375 6.475 3.25 6.3125 3.0625 6.3125ZM5.525 7.7875C5.35 7.7875 5.1875 7.9625 5.1875 8.1375C5.1875 8.3125 5.35 8.4875 5.525 8.4875L6.35 8.5375L6.1625 9H5.1L4.575 8.0125L5.1125 7H6.25L6.5125 7.5H7.2L6.75 6.5125L6.65 6.375H4.7L4.6125 6.525L3.875 7.8125L3.7875 7.975L3.875 8.1375L4.6 9.425L4.7 9.625H6.5875L6.675 9.4125L7.2125 8.2875L7.45 7.75H6.9L5.525 7.7875ZM8.125 6.3125C7.95 6.3125 7.75 6.475 7.75 6.65V7.5H8.5V6.6625C8.5 6.475 8.3 6.3125 8.125 6.3125ZM11.925 6.35C11.8 6.3 11.625 6.325 11.5375 6.425L9.5 8.425V6.6625C9.5 6.475 9.375 6.325 9.1875 6.325C9 6.325 8.875 6.475 8.875 6.6625V9.25C8.875 9.3875 8.9625 9.5125 9.0875 9.5625C9.125 9.575 9.175 9.5875 9.2125 9.5875C9.3 9.5875 9.4125 9.55 9.475 9.4875L11.5 7.4875V9.25C11.5 9.4375 11.625 9.5875 11.8125 9.5875C12 9.5875 12.125 9.4375 12.125 9.25V6.6625C12.125 6.525 12.05 6.4 11.925 6.35ZM14.65 7.95L15.7 6.9C15.8375 6.7625 15.8375 6.55 15.7 6.425C15.5625 6.2875 15.35 6.2875 15.225 6.425L14.175 7.475L13.125 6.425C12.9875 6.2875 12.775 6.2875 12.65 6.425C12.5125 6.5625 12.5125 6.775 12.65 6.9L13.7 7.95L12.65 9C12.5125 9.1375 12.5125 9.35 12.65 9.475C12.7125 9.5375 12.8 9.575 12.8875 9.575C12.975 9.575 13.0625 9.5375 13.125 9.475L14.175 8.425L15.225 9.475C15.2875 9.5375 15.375 9.575 15.4625 9.575C15.55 9.575 15.6375 9.5375 15.7 9.475C15.8375 9.3375 15.8375 9.125 15.7 9L14.65 7.95ZM7.75 9.2375C7.75 9.4125 7.9375 9.575 8.125 9.575C8.3 9.575 8.5 9.4125 8.5 9.2375V7.75H7.75V9.2375Z" fill="#009900"/>
</svg>
