<svg width="20" height="20" viewBox="0 0 20 20" fill="none" xmlns="http://www.w3.org/2000/svg">
<path d="M18.3266 15.3281L10.35 19.8438V16.3266L15.3125 13.5938L18.3266 15.3281ZM18.8735 14.8344V5.39844L15.9547 7.08594V13.15L18.8719 14.8328L18.8735 14.8344ZM1.67346 15.3281L9.64221 19.8406V16.3266L4.67815 13.5938L1.67346 15.3281ZM1.12659 14.8344V5.39844L4.04534 7.08594V13.15L1.12659 14.8344ZM1.46877 4.7875L9.65002 0.15625V3.55625L4.40784 6.43906L4.36565 6.4625L1.46877 4.7875ZM18.5281 4.7875L10.35 0.15625V3.55625L15.5922 6.4375L15.6344 6.46094L18.5313 4.7875H18.5281Z" fill="#8ED6FB"/>
<path d="M9.65005 15.5265L4.74536 12.828V7.4874L9.65005 10.3124V15.5265ZM10.35 15.5265L15.2547 12.8312V7.4874L10.35 10.3124V15.5265ZM5.07817 6.8749L10 4.16553L14.9219 6.8749L10 9.7124L5.07817 6.8749Z" fill="#1C78C0"/>
</svg>
