<svg width="27" height="17" viewBox="0 0 27 17" fill="none" xmlns="http://www.w3.org/2000/svg">
<path d="M7.63513 6.15961C7.63513 6.50817 7.67099 6.79072 7.73353 6.99794C7.81294 7.23107 7.90855 7.45772 8.01956 7.67606C8.06428 7.75139 8.0821 7.82672 8.0821 7.89272C8.0821 7.98683 8.02853 8.08106 7.9123 8.17528L7.3491 8.57083C7.26862 8.62739 7.18815 8.65561 7.11654 8.65561C7.02721 8.65561 6.93777 8.6085 6.84833 8.52372C6.72777 8.38744 6.62001 8.2392 6.52655 8.08106C6.43711 7.92106 6.34767 7.74194 6.24937 7.52539C5.55194 8.39183 4.67578 8.82509 3.62088 8.82517C2.86994 8.82517 2.27088 8.59905 1.83276 8.14705C1.39475 7.69483 1.17126 7.09206 1.17126 6.33861C1.17126 5.53806 1.43947 4.88817 1.98485 4.39839C2.53012 3.90861 3.25438 3.66372 4.17523 3.66372C4.47919 3.66372 4.79211 3.69194 5.12286 3.73906C5.45372 3.78617 5.79343 3.8615 6.15108 3.94628V3.25872C6.15108 2.54283 6.00796 2.04372 5.73078 1.75172C5.44475 1.45972 4.96192 1.31839 4.27352 1.31839C3.9606 1.31839 3.63881 1.35617 3.30796 1.44094C2.9771 1.52572 2.65532 1.62928 2.34239 1.76117C2.19937 1.82706 2.09211 1.86472 2.02946 1.88361C1.96682 1.9025 1.9222 1.91183 1.88645 1.91183C1.76126 1.91183 1.69871 1.81761 1.69871 1.61983V1.15828C1.69871 1.00761 1.71664 0.894611 1.76126 0.828722C1.80598 0.762722 1.88645 0.696833 2.01164 0.630944C2.32453 0.461314 2.7 0.320018 3.13805 0.207055C3.57627 0.0846107 4.04117 0.0281662 4.53287 0.0281662C5.59684 0.0281662 6.37467 0.282388 6.87533 0.791055C7.36703 1.29961 7.61741 2.07194 7.61741 3.10806V6.15961H7.63513ZM4.00532 7.59128C4.30042 7.59128 4.60438 7.53483 4.92616 7.42172C5.24805 7.30872 5.53419 7.1015 5.7755 6.81894C5.91862 6.64006 6.02589 6.44228 6.07946 6.21617C6.13315 5.99017 6.1689 5.71694 6.1689 5.39672V5.00117C5.89776 4.93169 5.62315 4.87824 5.34635 4.84106C5.06762 4.8038 4.78694 4.78491 4.50598 4.7845C3.90691 4.7845 3.4689 4.90694 3.17391 5.16128C2.87891 5.41561 2.73579 5.7735 2.73579 6.24439C2.73579 6.68706 2.84305 7.01672 3.06654 7.24283C3.28117 7.47828 3.59409 7.59128 4.00532 7.59128ZM11.1845 8.6085C11.0235 8.6085 10.9163 8.58028 10.8448 8.51428C10.7732 8.45783 10.7106 8.32594 10.657 8.14705L8.55608 0.866388C8.50229 0.677944 8.4755 0.5555 8.4755 0.489611C8.4755 0.338944 8.54701 0.254055 8.69013 0.254055H9.56626C9.73607 0.254055 9.8524 0.282388 9.91494 0.348277C9.98645 0.404833 10.0401 0.536722 10.0937 0.715611L11.5957 6.95083L12.9904 0.715611C13.0351 0.527277 13.0888 0.404833 13.1602 0.348277C13.2318 0.291833 13.357 0.254166 13.518 0.254166H14.2331C14.403 0.254166 14.5193 0.282388 14.5907 0.348277C14.6623 0.404833 14.7248 0.536722 14.7606 0.715611L16.1732 7.02617L17.7198 0.715611C17.7734 0.527277 17.8361 0.404833 17.8986 0.348277C17.9701 0.291833 18.0863 0.254166 18.2473 0.254166H19.0787C19.2218 0.254166 19.3023 0.3295 19.3023 0.489611C19.3023 0.536722 19.2933 0.583833 19.2844 0.640277C19.2754 0.696722 19.2576 0.772166 19.2218 0.875833L17.0671 8.15639C17.0135 8.34483 16.9509 8.46728 16.8794 8.52372C16.8079 8.58028 16.6916 8.61794 16.5397 8.61794H15.7709C15.601 8.61794 15.4847 8.58972 15.4131 8.52372C15.3416 8.45783 15.2791 8.33539 15.2433 8.14705L13.8575 2.07194L12.4807 8.1375C12.4361 8.32594 12.3824 8.44839 12.3109 8.51428C12.2394 8.58028 12.1142 8.6085 11.9533 8.6085H11.1845ZM22.6729 8.86283C22.208 8.86283 21.7431 8.80628 21.2961 8.69328C20.849 8.58028 20.5004 8.45772 20.268 8.31661C20.1248 8.23172 20.0264 8.13761 19.9908 8.05283C19.956 7.96968 19.9378 7.87992 19.9371 7.78905V7.30872C19.9371 7.11094 20.0086 7.01672 20.1428 7.01672C20.1975 7.01694 20.2519 7.0265 20.3037 7.04506C20.3573 7.06394 20.4378 7.1015 20.5272 7.13917C20.8429 7.28557 21.1726 7.39609 21.5106 7.46883C21.8608 7.54364 22.2172 7.58149 22.5746 7.58183C23.1378 7.58183 23.5759 7.47828 23.8798 7.27106C24.1838 7.06383 24.3448 6.7625 24.3448 6.37628C24.3448 6.11261 24.2643 5.89594 24.1033 5.71694C23.9424 5.53794 23.6384 5.37794 23.2004 5.22717L21.904 4.80339C21.2514 4.58672 20.7686 4.2665 20.4735 3.84261C20.1785 3.42817 20.0265 2.96672 20.0265 2.47694C20.0265 2.08139 20.107 1.73287 20.268 1.43139C20.4288 1.13006 20.6434 0.866388 20.9116 0.659166C21.1798 0.4425 21.4838 0.282388 21.8415 0.169388C22.199 0.0563885 22.5745 0.00927734 22.9679 0.00927734C23.1646 0.00927734 23.3702 0.0187218 23.5669 0.046944C23.7726 0.0751662 23.9603 0.112833 24.1481 0.1505C24.3268 0.197611 24.4967 0.244722 24.6577 0.301277C24.8186 0.357722 24.9437 0.414203 25.0331 0.470722C25.1583 0.546166 25.2477 0.6215 25.3014 0.706277C25.355 0.781611 25.3818 0.885203 25.3818 1.01706V1.45972C25.3818 1.6575 25.3103 1.76117 25.1762 1.76117C25.1047 1.76117 24.9884 1.72339 24.8366 1.64806C24.3268 1.40317 23.7546 1.28072 23.1199 1.28072C22.6103 1.28072 22.208 1.3655 21.9308 1.5445C21.6537 1.72339 21.5106 1.99661 21.5106 2.38272C21.5106 2.6465 21.6 2.8725 21.7788 3.0515C21.9576 3.2305 22.2884 3.40939 22.7623 3.5695L24.0318 3.99339C24.6755 4.21006 25.1404 4.51139 25.4176 4.8975C25.6948 5.28361 25.8289 5.72639 25.8289 6.21617C25.8289 6.62117 25.7483 6.9885 25.5964 7.30872C25.4355 7.62894 25.2209 7.9115 24.9437 8.13761C24.6665 8.37306 24.3358 8.54261 23.9514 8.66506C23.549 8.79694 23.1288 8.86283 22.6729 8.86283Z" fill="#252F3E"/>
<path d="M24.3626 13.4403C21.4213 15.7291 17.1477 16.9441 13.4733 16.9441C8.32354 16.9441 3.68355 14.9379 0.178928 11.6036C-0.098244 11.34 0.152033 10.9821 0.482783 11.1892C4.27354 13.5063 8.94939 14.9096 13.7862 14.9096C17.0494 14.9096 20.6345 14.1939 23.9335 12.7245C24.4252 12.489 24.8454 13.0636 24.3626 13.4403ZM25.5875 11.971C25.212 11.4624 23.102 11.7261 22.1454 11.8485C21.8593 11.8863 21.8146 11.6225 22.0739 11.4247C23.7547 10.1814 26.5173 10.5394 26.8391 10.9537C27.161 11.3776 26.7497 14.288 25.1762 15.682C24.9349 15.8986 24.7024 15.7856 24.8097 15.5031C25.1672 14.5705 25.963 12.4702 25.5875 11.971Z" fill="#FF9900"/>
</svg>
