<svg width="24" height="24" viewBox="0 0 24 24" fill="none" xmlns="http://www.w3.org/2000/svg">
<path d="M0 0H24V23.9469H0V0Z" fill="#005F0F"/>
<path d="M20.4551 3.26514C17.4993 6.87298 13.8896 9.89474 10.04 12.5143C8.78863 13.4066 7.40713 14.2008 6.44498 15.4227C6.07748 16.0657 5.98888 16.9714 6.6171 17.4932C7.66335 18.4753 9.2931 18.689 10.6038 18.1392C12.439 17.4429 13.7064 15.858 14.7718 14.287C17.1491 10.8754 18.5909 6.95114 20.4551 3.26514Z" fill="white"/>
<path d="M18.7598 4.51279C15.0797 7.41726 12.1362 8.98687 8.37259 10.3372C7.23671 10.8213 6.01946 11.4357 5.49165 12.6238C4.94846 13.7477 5.12649 15.3151 5.74974 16.3557C5.70315 15.9177 5.93809 15.2099 6.28768 14.8775C7.44756 13.5909 8.95843 12.7478 10.2873 11.7707L10.2905 11.7681L10.2937 11.7659C13.3693 9.66196 16.2527 7.25775 18.7598 4.51279Z" fill="#AEA99F"/>
</svg>
