<svg width="28" height="15" viewBox="0 0 28 15" fill="none" xmlns="http://www.w3.org/2000/svg">
<path d="M8.53847 9.92013C9.94044 9.92013 11.077 8.80681 11.077 7.43335C11.077 6.0601 9.94044 4.94678 8.53836 4.94678C7.1365 4.94678 5.99998 6.05999 5.99998 7.43346C5.99998 8.80692 7.1365 9.92013 8.53847 9.92013ZM2.53848 14.8934C3.94045 14.8934 5.07697 13.7802 5.07697 12.4067C5.07697 11.0335 3.94045 9.92013 2.53838 9.92013C1.13663 9.92013 0 11.0333 0 12.4067C0 13.7801 1.13641 14.8934 2.53848 14.8934ZM25.4615 14.8935C26.8635 14.8935 28 13.7803 28 12.4068C28 11.0336 26.8636 9.92024 25.4615 9.92024C24.0594 9.92024 22.923 11.0335 22.923 12.4068C22.923 13.7802 24.0595 14.8936 25.4616 14.8936" fill="black"/>
<path d="M17.1243 7.53825C17.0431 6.70746 17.0018 6.01596 16.3521 5.52996C15.5294 4.91454 14.5973 5.31386 13.4493 4.90789C12.3211 4.64057 11.4844 3.65946 11.4844 2.49C11.4844 1.11482 12.6413 0 14.0685 0C15.1256 0 16.0344 0.611464 16.4347 1.48746C17.0473 2.62746 16.6491 3.7875 17.4188 4.37186C18.3303 5.06379 19.5591 4.55711 20.9302 5.21271C21.3679 5.40938 21.7407 5.72205 22.0065 6.11539C22.2779 6.51702 22.4224 6.98813 22.4219 7.46979C22.4219 8.63925 21.5852 9.62046 20.4571 9.88779C19.309 10.2938 18.3769 9.89443 17.5541 10.5099C16.6288 11.202 17.1242 12.3599 16.37 13.5829C15.9421 14.3884 15.0721 14.9397 14.0685 14.9397C12.6413 14.9397 11.4844 13.8249 11.4844 12.4497C11.4844 11.4508 12.0949 10.5892 12.976 10.1926C14.3472 9.53689 15.5759 10.0437 16.4874 9.35175C17.0132 8.95254 17.1243 8.33679 17.1243 7.53825Z" fill="#D0021B"/>
</svg>
