<svg width="24" height="21" viewBox="0 0 24 21" fill="none" xmlns="http://www.w3.org/2000/svg">
<path d="M14.8106 13.0095L14.3503 13.788C14.2821 13.9032 14.184 13.9989 14.0658 14.0654C13.9476 14.132 13.8135 14.167 13.677 14.167H10.1503C10.0138 14.167 9.87965 14.132 9.76145 14.0654C9.64325 13.9989 9.54513 13.9032 9.47697 13.788L9.01656 13.0095H14.8106ZM16.0994 10.83L15.2877 12.2027H8.53956L7.72787 10.83H16.0994ZM15.3175 8.6988L16.1007 10.0233H7.72656L8.50975 8.6988H15.3175ZM13.6769 6.68408C13.8134 6.68408 13.9475 6.71911 14.0658 6.78564C14.184 6.85218 14.2821 6.94787 14.3503 7.06309L14.8404 7.89204H8.98684L9.47706 7.06309C9.54522 6.94788 9.64334 6.8522 9.76154 6.78567C9.87974 6.71913 10.0139 6.6841 10.1504 6.68408H13.6769Z" fill="#00435B"/>
<path d="M5.01779 6.32254C4.62713 4.47765 4.54322 3.06261 4.79579 2.03516C4.94597 1.42406 5.22047 0.925543 5.63804 0.565804C6.07885 0.186069 6.6361 -0.000283246 7.26235 -0.000283246C8.29529 -0.000283246 9.38129 0.458521 10.5417 1.33002C11.0152 1.68556 11.5064 2.11405 12.0166 2.61577C12.0573 2.56491 12.1031 2.51689 12.1543 2.47242C13.5968 1.22064 14.8112 0.442725 15.8499 0.142882C16.4676 -0.0355267 17.0474 -0.0525093 17.5754 0.120604C18.1328 0.303212 18.5769 0.680938 18.8903 1.20986C19.4075 2.08283 19.5438 3.22988 19.351 4.64629C19.2725 5.2236 19.1381 5.85242 18.9483 6.53382C19.0199 6.54222 19.0917 6.55774 19.1628 6.58066C20.9929 7.1714 22.2889 7.80651 23.0735 8.53247C23.5403 8.96434 23.8451 9.44515 23.9554 9.97746C24.0716 10.5393 23.9582 11.1027 23.6453 11.6313C23.1291 12.503 22.1799 13.1905 20.8279 13.735C20.2851 13.9537 19.6707 14.1517 18.9844 14.3298C19.0157 14.3987 19.0401 14.4718 19.0563 14.5485C19.4469 16.3934 19.5308 17.8084 19.2783 18.8359C19.1281 19.447 18.8535 19.9455 18.4359 20.3053C17.9952 20.685 17.4379 20.8713 16.8117 20.8713C15.7787 20.8713 14.6928 20.4125 13.5323 19.541C13.0538 19.1817 12.5572 18.7479 12.0411 18.2392C11.9868 18.3219 11.921 18.397 11.8457 18.4622C10.4033 19.7142 9.18882 20.4919 8.15007 20.7918C7.53244 20.9702 6.9526 20.9872 6.4246 20.8141C5.86716 20.6315 5.42307 20.2538 5.10966 19.7248C4.59254 18.8519 4.45622 17.7048 4.64897 16.2884C4.73044 15.6903 4.87172 15.0367 5.07254 14.3267C4.99249 14.3188 4.91358 14.3024 4.83722 14.2777C3.00713 13.687 1.71113 13.0519 0.926536 12.3259C0.459661 11.894 0.154879 11.4132 0.0446294 10.8809C-0.0716206 10.3191 0.0418169 9.75559 0.354754 9.22703C0.870942 8.35534 1.82007 7.66782 3.17213 7.12337C3.73116 6.89813 4.36594 6.69488 5.07713 6.51264C5.05148 6.45115 5.03161 6.38753 5.01779 6.32254Z" fill="#002B3B"/>
<path d="M17.7794 14.7303C17.8667 14.7152 17.9567 14.7334 18.0306 14.7812C18.1045 14.829 18.1567 14.9026 18.1764 14.9869L18.1786 14.9971L18.198 15.0952C18.827 18.3161 18.3839 19.9266 16.8686 19.9266C15.3861 19.9266 13.4989 18.5524 11.2069 15.8039C11.1661 15.7551 11.1403 15.6961 11.1323 15.6337C11.1243 15.5712 11.1344 15.5079 11.1615 15.4507C11.1886 15.3936 11.2317 15.3451 11.2857 15.3106C11.3397 15.2761 11.4026 15.2571 11.4672 15.2557H11.4779L11.5986 15.2565C12.5631 15.2616 13.5008 15.2288 14.4115 15.1582C15.4865 15.0748 16.6091 14.9322 17.7794 14.7303ZM7.37305 12.2956L7.37886 12.3052L7.43942 12.4081C7.92474 13.2298 8.43036 14.0097 8.9563 14.7479C9.5758 15.6171 10.2724 16.4971 11.046 17.3879C11.1034 17.454 11.1324 17.5391 11.127 17.6255C11.1217 17.712 11.0822 17.793 11.017 17.8519L11.0083 17.8595L10.9305 17.9248C8.37049 20.061 6.70661 20.4875 5.93886 19.2041C5.1873 17.948 5.45977 15.664 6.75627 12.352C6.77922 12.2933 6.81859 12.2421 6.8699 12.2041C6.92122 12.166 6.98244 12.1428 7.04663 12.1369C7.11083 12.131 7.17542 12.1428 7.23311 12.1708C7.2908 12.1989 7.33928 12.2421 7.37305 12.2956ZM19.0784 7.54281L19.0889 7.54619L19.1853 7.57851C22.3451 8.64908 23.5456 9.82554 22.7868 11.1079C22.0446 12.3621 19.8871 13.2753 16.3142 13.8474C16.2494 13.8578 16.183 13.85 16.1226 13.8249C16.0622 13.7998 16.0105 13.7585 15.9733 13.7058C15.9362 13.6531 15.9153 13.5911 15.913 13.5273C15.9107 13.4634 15.9272 13.4002 15.9605 13.3451C16.4722 12.4973 16.9331 11.6538 17.3432 10.8144C17.8082 9.86255 18.2446 8.84085 18.6524 7.74934C18.682 7.67001 18.7412 7.60442 18.8182 7.5656C18.8951 7.52679 18.9843 7.51757 19.0679 7.5398L19.0784 7.54281ZM7.9168 7.00384C7.9559 7.02621 7.9901 7.05586 8.01744 7.09111C8.04478 7.12635 8.06472 7.16649 8.07612 7.20924C8.08753 7.25199 8.09017 7.29651 8.08391 7.34026C8.07764 7.384 8.06259 7.42612 8.03961 7.4642C7.52774 8.31193 7.0668 9.15549 6.6568 9.99488C6.1918 10.9467 5.75539 11.9684 5.34758 13.06C5.3173 13.141 5.25621 13.2076 5.17693 13.2461C5.09765 13.2845 5.00624 13.2918 4.92158 13.2665L4.91108 13.2631L4.81471 13.2307C1.65489 12.1602 0.454393 10.9838 1.21321 9.70143C1.95533 8.44721 4.11286 7.53401 7.6858 6.96184C7.76549 6.94906 7.84724 6.96394 7.9168 7.00384ZM18.0611 1.73111C18.8127 2.98727 18.5402 5.27134 17.2437 8.58331C17.2208 8.64199 17.1814 8.69324 17.1301 8.73125C17.0788 8.76926 17.0175 8.79252 16.9533 8.7984C16.8891 8.80427 16.8245 8.79252 16.7669 8.76448C16.7092 8.73644 16.6607 8.69323 16.6269 8.63974L16.6211 8.63015L16.5605 8.52725C16.0752 7.70551 15.5696 6.92556 15.0437 6.1874C14.4242 5.31818 13.7276 4.43819 12.954 3.54742C12.8966 3.48132 12.8675 3.39619 12.8729 3.30976C12.8783 3.22333 12.9177 3.14226 12.983 3.08341L12.9917 3.07584L13.0695 3.01055C15.6295 0.874336 17.2934 0.447853 18.0611 1.73111ZM7.26092 0.966797C8.74349 0.966797 10.6307 2.34099 12.9227 5.08937C12.9634 5.13822 12.9892 5.19721 12.9972 5.25965C13.0053 5.32208 12.9951 5.38545 12.968 5.44256C12.9409 5.49967 12.8979 5.54822 12.8438 5.58271C12.7898 5.6172 12.7269 5.63623 12.6623 5.63765H12.6516L12.5309 5.63692C11.5665 5.63181 10.6289 5.66456 9.71811 5.73517C8.64299 5.81856 7.52033 5.96121 6.35014 6.16311C6.26281 6.17816 6.17288 6.15991 6.09898 6.11215C6.02509 6.06439 5.97289 5.99077 5.95321 5.90654L5.95096 5.89623L5.93155 5.79817C5.30242 2.57725 5.74555 0.966797 7.26092 0.966797Z" fill="#FF4154"/>
<path d="M10.4339 6.72656H13.3941C13.6068 6.72655 13.8157 6.78121 13.9998 6.88501C14.1838 6.98882 14.3365 7.13809 14.4424 7.31776L15.9288 9.84013C16.0339 10.0184 16.0892 10.2204 16.0892 10.426C16.0892 10.6316 16.0339 10.8336 15.9288 11.0119L14.4424 13.5343C14.3365 13.714 14.1838 13.8632 13.9998 13.967C13.8157 14.0709 13.6068 14.1255 13.3941 14.1255H10.4339C10.001 14.1255 9.60111 13.9 9.38558 13.5343L7.89936 11.0119C7.79427 10.8336 7.73897 10.6316 7.73897 10.426C7.73897 10.2204 7.79427 10.0184 7.89936 9.84013L9.38567 7.31776C9.49153 7.13808 9.6442 6.9888 9.82827 6.88499C10.0123 6.78119 10.2212 6.72654 10.4339 6.72656ZM12.943 7.48786C13.3761 7.48786 13.7763 7.71365 13.9916 8.0796L15.0281 9.84068C15.133 10.0189 15.1882 10.2207 15.1882 10.426C15.1882 10.6314 15.133 10.8332 15.0281 11.0114L13.9916 12.7725C13.8858 12.9523 13.7331 13.1017 13.549 13.2056C13.3648 13.3094 13.1558 13.3641 12.943 13.3641H10.8852C10.4521 13.3641 10.052 13.1384 9.83661 12.7725L8.80011 11.0114C8.69522 10.8332 8.64004 10.6314 8.64004 10.426C8.64004 10.2207 8.69522 10.0189 8.80011 9.84068L9.83661 8.0796C9.94242 7.89981 10.0951 7.75042 10.2792 7.64653C10.4633 7.54264 10.6723 7.48794 10.8851 7.48795L12.943 7.48786ZM12.4567 8.32055H11.3715C11.1589 8.32053 10.95 8.37513 10.766 8.47885C10.582 8.58258 10.4293 8.73174 10.3235 8.91129L9.77576 9.83958C9.67047 10.018 9.61505 10.2202 9.61505 10.426C9.61505 10.6318 9.67047 10.834 9.77576 11.0125L10.3235 11.9409C10.4293 12.1204 10.582 12.2696 10.766 12.3733C10.95 12.477 11.1589 12.5316 11.3715 12.5316H12.4567C12.8895 12.5316 13.2892 12.3063 13.5048 11.9409L14.0525 11.0125C14.1578 10.834 14.2132 10.6318 14.2132 10.426C14.2132 10.2202 14.1578 10.018 14.0525 9.83958L13.5048 8.9112C13.3989 8.73165 13.2462 8.58248 13.0622 8.47876C12.8782 8.37504 12.6693 8.32053 12.4567 8.32055ZM11.9885 9.11746C12.4209 9.11746 12.8204 9.34243 13.036 9.70728L13.1137 9.83876C13.2193 10.0174 13.2749 10.2198 13.2749 10.4259C13.2749 10.632 13.2193 10.8345 13.1137 11.0131L13.036 11.1446C12.9301 11.3239 12.7774 11.4728 12.5935 11.5764C12.4096 11.6799 12.201 11.7344 11.9885 11.7344H11.8397C11.6272 11.7344 11.4186 11.6799 11.2347 11.5764C11.0508 11.4728 10.8982 11.3239 10.7922 11.1446L10.7145 11.0131C10.6089 10.8345 10.5533 10.632 10.5533 10.4259C10.5533 10.2198 10.6089 10.0174 10.7145 9.83876L10.7922 9.70728C10.8982 9.52798 11.0508 9.37905 11.2347 9.2755C11.4186 9.17195 11.6272 9.11744 11.8397 9.11746H11.9885ZM11.9143 9.90258C11.8199 9.90256 11.7271 9.92673 11.6453 9.97266C11.5636 10.0186 11.4956 10.0847 11.4484 10.1643C11.4012 10.2438 11.3763 10.3341 11.3763 10.4259C11.3763 10.5178 11.4012 10.6081 11.4484 10.6876C11.4956 10.7672 11.5635 10.8333 11.6452 10.8793C11.727 10.9253 11.8198 10.9495 11.9142 10.9495C12.0086 10.9495 12.1013 10.9253 12.1831 10.8793C12.2648 10.8333 12.3327 10.7672 12.38 10.6876C12.4271 10.6081 12.452 10.5178 12.452 10.4259C12.452 10.3341 12.4271 10.2438 12.38 10.1643C12.3327 10.0847 12.2648 10.0187 12.1831 9.97273C12.1014 9.9268 12.0087 9.90261 11.9143 9.90258ZM7.55408 10.4259H8.52158Z" fill="#FFD94C"/>
</svg>
