<svg width="26" height="17" viewBox="0 0 26 17" fill="none" xmlns="http://www.w3.org/2000/svg">
<path d="M24.5029 0.000835022C24.1157 0.013535 24.2381 0.127535 23.4015 0.337835C22.5568 0.550335 21.5247 0.485235 20.615 0.875035C17.8993 2.03894 17.3543 6.01674 14.8855 7.44164C13.04 8.50684 11.1782 8.59174 9.50424 9.12774C8.40418 9.48024 7.20077 10.2031 6.20405 11.0807C5.43045 11.7623 5.41029 12.3615 4.60195 13.2162C3.73725 14.1305 1.16553 13.2317 0 14.631C0.375496 15.0189 0.5401 15.1276 1.28003 15.027C1.12678 15.3236 0.22381 15.5736 0.400549 16.0101C0.586486 16.4694 2.76978 16.7807 4.75432 15.5563C5.67853 14.9861 6.41475 14.1643 7.8542 13.9681C9.7169 13.7144 11.8626 14.1308 14.0191 14.4486C13.6993 15.4228 13.0574 16.0706 12.5431 16.8465C12.3839 17.0218 12.863 17.0414 13.4095 16.9355C14.3927 16.6871 15.1013 16.487 15.8433 16.0457C16.7548 15.5034 16.893 14.1132 18.0115 13.8124C18.6347 14.7911 20.3295 15.0224 21.3812 14.2394C20.4584 13.9725 20.2034 11.9653 20.5149 11.0808C20.8099 10.2435 21.1015 8.90424 21.3987 7.79754C21.7177 6.60894 21.8354 5.11083 22.2215 4.50533C22.8025 3.59443 23.4444 3.28164 24.0016 2.76794C24.5588 2.25424 25.069 1.75434 25.0522 0.578935C25.0468 0.200435 24.8552 -0.010665 24.5029 0.000835022Z" fill="#002B64"/>
<path d="M23.6733 0.696777C23.7661 1.01998 23.9113 1.16838 24.5389 1.22768C24.4472 2.04068 23.9165 2.48548 23.3214 2.91208C22.7976 3.28738 22.2239 3.64878 21.8553 4.23508C21.4775 4.83558 21.2378 6.89098 20.6522 8.92078C20.1459 10.6747 19.3815 12.4088 18.0466 13.1687C17.9072 12.81 18.0644 12.1479 17.787 11.9303C17.6075 12.4534 17.4046 12.9525 17.1669 13.4163C16.3836 14.9463 15.2239 16.0917 13.2857 16.4415C14.2053 15.1699 15.0846 13.8568 15.1037 11.6652C14.4565 11.8082 14.4702 13.3704 13.8053 13.788C13.379 13.8354 12.947 13.8351 12.5125 13.8084C10.7275 13.6991 8.89633 13.1509 7.22651 13.6984C6.08955 14.0713 5.15967 14.9509 4.1969 15.3776C3.06533 15.8791 2.20835 16.0853 0.799335 15.8791C0.620345 15.6328 1.8306 15.3151 1.75819 14.7803C1.20673 14.718 0.88653 14.8545 0.407104 14.632C0.460048 14.5323 0.537848 14.4493 0.635808 14.3802C1.51441 13.7587 4.01008 14.2334 4.67789 13.5632C5.09019 13.1499 5.36068 12.7172 5.64076 12.2967C5.91232 11.8886 6.19299 11.4919 6.62074 11.1343C6.78581 10.9969 6.95658 10.8669 7.13256 10.7445C7.86144 10.2348 8.76314 9.77248 9.65055 9.45378C10.8592 9.01958 12.0842 8.98378 13.3726 8.48078C14.1685 8.16988 15.0341 7.78598 15.7396 7.24878C15.9058 7.12293 16.0637 6.98599 16.2122 6.83888C18.2268 4.83208 18.6261 1.29208 21.7693 0.962177C22.1494 0.922377 22.4605 0.935177 22.7438 0.926477C23.0701 0.916477 23.3591 0.877777 23.6733 0.696777ZM19.8416 12.0268C19.8791 12.6402 20.2277 13.8574 20.5353 14.1532C19.9327 14.3029 18.8947 14.0555 18.6284 13.6212C18.7652 12.9941 19.4772 12.4209 19.8416 12.0268Z" fill="#C49A6C"/>
<path d="M23.8998 1.38371C23.7787 1.64341 23.5467 1.97811 23.5467 2.63911C23.5457 2.75261 23.4624 2.83031 23.461 2.65541C23.4673 2.00941 23.6346 1.73011 23.8123 1.36311C23.8949 1.21271 23.9447 1.27471 23.8998 1.38371ZM23.7778 1.28591C23.6349 1.53371 23.2908 1.98551 23.2339 2.64401C23.2234 2.75701 23.1336 2.82681 23.1472 2.65231C23.2092 2.00951 23.4842 1.60721 23.6929 1.25741C23.7876 1.11521 23.8321 1.18141 23.7778 1.28591ZM23.6666 1.15631C23.5038 1.39081 22.9741 1.93351 22.8634 2.58491C22.8434 2.69631 22.7482 2.75851 22.7763 2.58581C22.8908 1.95041 23.3474 1.45101 23.5841 1.12081C23.6902 0.986812 23.7289 1.05681 23.6666 1.15631ZM23.5674 1.01171L23.5137 1.07001C23.2769 1.32941 22.7267 1.96221 22.5434 2.54151C22.5082 2.64901 22.4054 2.69691 22.4569 2.52981C22.6577 1.91721 23.2108 1.25741 23.4906 0.964513C23.6142 0.847312 23.6428 0.922112 23.5674 1.01171ZM20.7245 2.32321C20.8472 1.78461 21.2571 1.53921 21.9648 1.59901C22.1356 2.40301 21.1799 2.72731 20.7245 2.32321Z" fill="#002B64"/>
</svg>
