<svg width="25" height="16" viewBox="0 0 25 16" fill="none" xmlns="http://www.w3.org/2000/svg">
<path d="M12.5 0C9.16667 0 7.08333 1.68213 6.25 5.04638C7.5 3.36425 8.95833 2.73346 10.625 3.15399C11.5759 3.39389 12.2556 4.09023 13.0079 4.86089C14.2335 6.11647 15.6519 7.56957 18.75 7.56957C22.0833 7.56957 24.1667 5.88745 25 2.52319C23.75 4.20532 22.2917 4.83612 20.625 4.41558C19.6741 4.17568 18.9944 3.47934 18.2421 2.70869C17.0165 1.4531 15.5981 0 12.5 0ZM6.25 7.56957C2.91667 7.56957 0.833333 9.2517 0 12.616C1.25 10.9338 2.70833 10.303 4.375 10.7236C5.32588 10.9635 6.00557 11.6598 6.75791 12.4305C7.9835 13.686 9.40186 15.1391 12.5 15.1391C15.8333 15.1391 17.9167 13.457 18.75 10.0928C17.5 11.7749 16.0417 12.4057 14.375 11.9852C13.4241 11.7453 12.7444 11.0489 11.9921 10.2783C10.7665 9.02267 9.34814 7.56957 6.25 7.56957Z" fill="url(#paint0_linear_177_528)"/>
<defs>
<linearGradient id="paint0_linear_177_528" x1="-69.45" y1="484.453" x2="2099.61" y2="1723.6" gradientUnits="userSpaceOnUse">
<stop stop-color="#2298BD"/>
<stop offset="1" stop-color="#0ED7B5"/>
</linearGradient>
</defs>
</svg>
