<svg width="30" height="18" viewBox="0 0 30 18" fill="none" xmlns="http://www.w3.org/2000/svg">
<path d="M10.8874 17.9481C10.8129 17.9481 10.7433 17.9286 10.6787 17.8946L10.0177 17.5105C9.91833 17.457 9.96804 17.4375 9.99788 17.4278C10.132 17.3841 10.1569 17.3743 10.296 17.2966C10.311 17.2868 10.3309 17.2917 10.3458 17.3014L10.8527 17.598C10.8726 17.6077 10.8974 17.6077 10.9123 17.598L12.8953 16.4748C12.9151 16.4651 12.9251 16.4456 12.9251 16.4214V14.1799C12.9251 14.1556 12.9151 14.1362 12.8953 14.1264L10.9123 13.0081C10.8924 12.9984 10.8676 12.9984 10.8527 13.0081L8.86972 14.1264C8.84986 14.1361 8.83988 14.1604 8.83988 14.1799V16.4213C8.83988 16.4408 8.84986 16.4651 8.86972 16.4748L9.41144 16.7811C9.70466 16.927 9.88853 16.7568 9.88853 16.5867V14.3744C9.88853 14.3452 9.91339 14.316 9.94817 14.316H10.2016C10.2315 14.316 10.2613 14.3403 10.2613 14.3744V16.5867C10.2613 16.9707 10.0475 17.1944 9.67482 17.1944C9.56053 17.1944 9.47108 17.1944 9.2176 17.0728L8.69579 16.7811C8.56657 16.7082 8.48706 16.5721 8.48706 16.4262V14.1847C8.48706 14.0389 8.56657 13.9027 8.69579 13.8298L10.6787 12.7066C10.803 12.6386 10.972 12.6386 11.0962 12.7066L13.0791 13.8298C13.2083 13.9027 13.2879 14.0389 13.2879 14.1847V16.4262C13.2879 16.5721 13.2083 16.7082 13.0791 16.7811L11.0962 17.9043C11.0316 17.9335 10.957 17.9481 10.8874 17.9481ZM11.4988 16.4068C10.6291 16.4068 10.4502 16.0178 10.4502 15.6872C10.4502 15.658 10.475 15.6288 10.5098 15.6288H10.7682C10.798 15.6288 10.8229 15.6483 10.8229 15.6775C10.8627 15.9351 10.977 16.0615 11.5038 16.0615C11.9212 16.0615 12.1002 15.9692 12.1002 15.7504C12.1002 15.6239 12.0504 15.5316 11.3994 15.4684C10.8577 15.4149 10.5197 15.2982 10.5197 14.8752C10.5197 14.4813 10.8577 14.2479 11.4243 14.2479C12.0604 14.2479 12.3735 14.4619 12.4133 14.9286C12.4133 14.9432 12.4083 14.9578 12.3983 14.9724C12.3884 14.9821 12.3735 14.9918 12.3586 14.9918H12.1001C12.0753 14.9918 12.0504 14.9724 12.0455 14.9481C11.9858 14.6807 11.8318 14.5932 11.4243 14.5932C10.967 14.5932 10.9123 14.7488 10.9123 14.8654C10.9123 15.0064 10.977 15.0502 11.5932 15.128C12.2045 15.2058 12.4928 15.3176 12.4928 15.7358C12.4878 16.1636 12.13 16.4068 11.4988 16.4068Z" fill="#539E43"/>
<path d="M4.73487 9.18158C4.73487 9.09408 4.68517 9.01137 4.60566 8.96762L2.49846 7.78126C2.46363 7.76179 2.4239 7.75207 2.38417 7.74719H2.36426C2.32452 7.74719 2.28475 7.76179 2.24996 7.78126L0.142766 8.96762C0.0632154 9.01137 0.0135498 9.09403 0.0135498 9.18158L0.0185379 12.3711C0.0185379 12.4149 0.0433921 12.4587 0.0831246 12.4781C0.1229 12.5024 0.172566 12.5024 0.207396 12.4781L1.45979 11.778C1.53929 11.7342 1.589 11.6516 1.589 11.564V10.0713C1.589 9.98384 1.63867 9.90118 1.71822 9.85742L2.24996 9.55596C2.28974 9.53164 2.33446 9.52188 2.37918 9.52188C2.4239 9.52188 2.46862 9.53164 2.50345 9.55596L3.03519 9.85742C3.11474 9.90118 3.16441 9.9838 3.16441 10.0713V11.564C3.16441 11.6516 3.21412 11.7342 3.29363 11.778L4.54602 12.4781C4.56536 12.49 4.58776 12.4964 4.61062 12.4964C4.63349 12.4964 4.65588 12.49 4.67523 12.4781C4.71501 12.4587 4.73986 12.4149 4.73986 12.3711L4.73487 9.18158ZM14.8633 4.79102C14.8236 4.77154 14.7739 4.77154 14.7391 4.79102C14.6993 4.81534 14.6745 4.85421 14.6745 4.89796V8.05842C14.6745 8.08757 14.6596 8.11672 14.6298 8.1362C14.5999 8.15076 14.5701 8.15076 14.5403 8.1362L14.0135 7.83961C13.9749 7.81811 13.9312 7.80681 13.8868 7.80681C13.8423 7.80681 13.7987 7.81811 13.76 7.83961L11.6528 9.03085C11.5733 9.0746 11.5236 9.15726 11.5236 9.24477V11.6224C11.5236 11.7099 11.5733 11.7926 11.6528 11.8363L13.76 13.0276C13.7987 13.0491 13.8423 13.0604 13.8868 13.0604C13.9312 13.0604 13.9749 13.0491 14.0135 13.0276L16.1207 11.8363C16.2002 11.7926 16.2499 11.7099 16.2499 11.6224V5.69538C16.2499 5.603 16.2002 5.52038 16.1207 5.47658L14.8633 4.79102ZM14.6695 10.8396C14.6695 10.8639 14.6596 10.8833 14.6397 10.893L13.9191 11.3015C13.909 11.3063 13.898 11.3088 13.8868 11.3088C13.8756 11.3088 13.8645 11.3063 13.8545 11.3015L13.1339 10.893C13.1139 10.8833 13.104 10.859 13.104 10.8396V10.0227C13.104 9.9984 13.1139 9.97896 13.1339 9.96924L13.8545 9.56079C13.8645 9.55598 13.8756 9.55347 13.8868 9.55347C13.898 9.55347 13.909 9.55598 13.9191 9.56079L14.6397 9.96924C14.6596 9.97892 14.6695 10.0033 14.6695 10.0227V10.8396ZM21.8757 10.0033C21.9553 9.95953 22 9.87686 22 9.78931V9.21073C22 9.12323 21.9503 9.04056 21.8757 8.99681L19.7835 7.81046C19.7448 7.78896 19.7012 7.77765 19.6567 7.77765C19.6123 7.77765 19.5686 7.78896 19.53 7.81046L17.4228 9.00165C17.3432 9.0454 17.2936 9.12807 17.2936 9.21557V11.5932C17.2936 11.6807 17.3433 11.7634 17.4228 11.8071L19.515 12.974C19.5946 13.0178 19.689 13.0178 19.7636 12.974L21.0309 12.2837C21.0706 12.2642 21.0955 12.2205 21.0955 12.1767C21.0955 12.1329 21.0706 12.0892 21.0309 12.0697L18.9137 10.8785C18.874 10.8542 18.8491 10.8153 18.8491 10.7715V10.0276C18.8491 9.98388 18.874 9.94013 18.9137 9.92065L19.5747 9.55112C19.594 9.5392 19.6164 9.53288 19.6393 9.53288C19.6622 9.53288 19.6846 9.5392 19.7039 9.55112L20.3649 9.92065C20.4047 9.94497 20.4295 9.98384 20.4295 10.0276V10.6111C20.4295 10.6548 20.4543 10.6986 20.4941 10.718C20.5135 10.73 20.5359 10.7363 20.5587 10.7363C20.5816 10.7363 20.604 10.73 20.6233 10.718L21.8757 10.0033Z" fill="#333333"/>
<path d="M19.6244 9.89142C19.6318 9.88666 19.6404 9.88412 19.6493 9.88412C19.6581 9.88412 19.6667 9.88666 19.6741 9.89142L20.0767 10.1199C20.0916 10.1297 20.1015 10.1443 20.1015 10.1637V10.6208C20.1015 10.6402 20.0916 10.6548 20.0767 10.6645L19.6741 10.893C19.6667 10.8978 19.6581 10.9003 19.6493 10.9003C19.6404 10.9003 19.6318 10.8978 19.6244 10.893L19.2219 10.6645C19.207 10.6548 19.197 10.6402 19.197 10.6208V10.1637C19.197 10.1443 19.2069 10.1297 19.2219 10.12L19.6244 9.89142Z" fill="#539E43"/>
<path d="M8.25857 7.82018C8.21994 7.79869 8.17628 7.78738 8.13184 7.78738C8.08741 7.78738 8.04374 7.79869 8.00512 7.82018L5.91285 9.00161C5.83329 9.04536 5.78857 9.12803 5.78857 9.21553V11.5834C5.78857 11.6709 5.83828 11.7536 5.91285 11.7974L8.00512 12.9789C8.04374 13.0004 8.08741 13.0117 8.13184 13.0117C8.17628 13.0117 8.21994 13.0004 8.25857 12.9789L10.3509 11.7974C10.4304 11.7536 10.4752 11.6709 10.4752 11.5834V9.21558C10.4752 9.12807 10.4254 9.04541 10.3509 9.00165L8.25857 7.82018Z" fill="url(#paint0_linear_208_122)"/>
<mask id="mask0_208_122" style="mask-type:luminance" maskUnits="userSpaceOnUse" x="5" y="7" width="6" height="7">
<path d="M8.25857 7.82018C8.21994 7.79869 8.17628 7.78738 8.13184 7.78738C8.08741 7.78738 8.04374 7.79869 8.00512 7.82018L5.91285 9.00161C5.83329 9.04536 5.78857 9.12803 5.78857 9.21553V11.5834C5.78857 11.6709 5.83828 11.7536 5.91285 11.7974L8.00512 12.9789C8.04374 13.0004 8.08741 13.0117 8.13184 13.0117C8.17628 13.0117 8.21994 13.0004 8.25857 12.9789L10.3509 11.7974C10.4304 11.7536 10.4752 11.6709 10.4752 11.5834V9.21558C10.4752 9.12807 10.4254 9.04541 10.3509 9.00165L8.25857 7.82018Z" fill="white"/>
</mask>
<g mask="url(#mask0_208_122)">
<path d="M10.3558 9.00164L8.25358 7.82017C8.23292 7.80996 8.21127 7.80181 8.18895 7.79585L5.83325 11.744C5.85278 11.7673 5.87634 11.787 5.90287 11.8023L8.00508 12.9838C8.06472 13.0179 8.13429 13.0276 8.19888 13.0081L10.4105 9.05032C10.3956 9.03088 10.3757 9.0162 10.3558 9.00164Z" fill="url(#paint1_linear_208_122)"/>
</g>
<mask id="mask1_208_122" style="mask-type:luminance" maskUnits="userSpaceOnUse" x="5" y="7" width="6" height="7">
<path d="M8.25857 7.82018C8.21994 7.79869 8.17628 7.78738 8.13184 7.78738C8.08741 7.78738 8.04374 7.79869 8.00512 7.82018L5.91285 9.00161C5.83329 9.04536 5.78857 9.12803 5.78857 9.21553V11.5834C5.78857 11.6709 5.83828 11.7536 5.91285 11.7974L8.00512 12.9789C8.04374 13.0004 8.08741 13.0117 8.13184 13.0117C8.17628 13.0117 8.21994 13.0004 8.25857 12.9789L10.3509 11.7974C10.4304 11.7536 10.4752 11.6709 10.4752 11.5834V9.21558C10.4752 9.12807 10.4254 9.04541 10.3509 9.00165L8.25857 7.82018Z" fill="white"/>
</mask>
<g mask="url(#mask1_208_122)">
<path fill-rule="evenodd" clip-rule="evenodd" d="M10.3607 11.7974C10.4204 11.7634 10.4651 11.705 10.485 11.6418L8.17893 7.79097C8.11929 7.78125 8.05466 7.78609 8.00005 7.82012L5.91272 8.9968L8.16401 13.0129C8.19676 13.0077 8.22856 12.9979 8.25844 12.9838L10.3607 11.7974Z" fill="url(#paint2_linear_208_122)"/>
<path fill-rule="evenodd" clip-rule="evenodd" d="M10.3608 11.7974L8.2635 12.9789C8.23388 12.9937 8.20197 13.0035 8.16907 13.0081L8.20884 13.081L10.5347 11.7634V11.7342L10.4751 11.6369C10.4651 11.705 10.4204 11.7634 10.3608 11.7974Z" fill="url(#paint3_linear_208_122)"/>
<path fill-rule="evenodd" clip-rule="evenodd" d="M10.3608 11.7974L8.2635 12.9789C8.23388 12.9937 8.20197 13.0035 8.16907 13.0081L8.20884 13.081L10.5347 11.7634V11.7342L10.4751 11.6369C10.4651 11.705 10.4204 11.7634 10.3608 11.7974Z" fill="url(#paint4_linear_208_122)"/>
</g>
<defs>
<linearGradient id="paint0_linear_208_122" x1="325.357" y1="99.1446" x2="103.106" y2="456.099" gradientUnits="userSpaceOnUse">
<stop stop-color="#41873F"/>
<stop offset="0.3288" stop-color="#418B3D"/>
<stop offset="0.6352" stop-color="#419637"/>
<stop offset="0.9319" stop-color="#3FA92D"/>
<stop offset="1" stop-color="#3FAE2A"/>
</linearGradient>
<linearGradient id="paint1_linear_208_122" x1="203.922" y1="295.899" x2="772.477" y2="-19.8369" gradientUnits="userSpaceOnUse">
<stop offset="0.1376" stop-color="#41873F"/>
<stop offset="0.4032" stop-color="#54A044"/>
<stop offset="0.7136" stop-color="#66B848"/>
<stop offset="0.9081" stop-color="#6CC04A"/>
</linearGradient>
<linearGradient id="paint2_linear_208_122" x1="-14.155" y1="269.091" x2="469.995" y2="269.091" gradientUnits="userSpaceOnUse">
<stop offset="0.09192" stop-color="#6CC04A"/>
<stop offset="0.2864" stop-color="#66B848"/>
<stop offset="0.5968" stop-color="#54A044"/>
<stop offset="0.8624" stop-color="#41873F"/>
</linearGradient>
<linearGradient id="paint3_linear_208_122" x1="-237.528" y1="84.2375" x2="246.617" y2="84.2375" gradientUnits="userSpaceOnUse">
<stop offset="0.09192" stop-color="#6CC04A"/>
<stop offset="0.2864" stop-color="#66B848"/>
<stop offset="0.5968" stop-color="#54A044"/>
<stop offset="0.8624" stop-color="#41873F"/>
</linearGradient>
<linearGradient id="paint4_linear_208_122" x1="317.151" y1="-293.161" x2="199.576" y2="336.565" gradientUnits="userSpaceOnUse">
<stop stop-color="#41873F"/>
<stop offset="0.3288" stop-color="#418B3D"/>
<stop offset="0.6352" stop-color="#419637"/>
<stop offset="0.9319" stop-color="#3FA92D"/>
<stop offset="1" stop-color="#3FAE2A"/>
</linearGradient>
</defs>
</svg>
