<svg width="19" height="19" viewBox="0 0 19 19" fill="none" xmlns="http://www.w3.org/2000/svg">
<g clip-path="url(#clip0_208_170)">
<path d="M19 14.7155C18.7235 14.8199 18.4183 14.8196 18.142 14.7146C17.8656 14.6096 17.6372 14.4072 17.4998 14.1455L14.7686 10.3685L14.3727 9.84042L11.2037 14.1502C11.0746 14.4011 10.8586 14.5963 10.5961 14.6995C10.3335 14.8027 10.0424 14.8067 9.77709 14.7107L13.8605 9.23241L10.0621 4.28371C10.3352 4.18528 10.6339 4.18398 10.9079 4.28001C11.1819 4.37605 11.4144 4.56355 11.5663 4.81096L14.3973 8.63471L17.2441 4.82679C17.3741 4.58041 17.5902 4.39041 17.8512 4.29291C18.1121 4.19541 18.3999 4.19721 18.6596 4.29796L17.1855 6.25416L15.1889 8.85321C15.1335 8.90267 15.0891 8.96329 15.0587 9.03109C15.0284 9.0989 15.0127 9.17236 15.0127 9.24667C15.0127 9.32097 15.0284 9.39443 15.0587 9.46224C15.0891 9.53004 15.1335 9.59066 15.1889 9.64012L18.9921 14.7163L19 14.7155ZM0.00159371 9.16433L0.334094 7.52162C1.24768 4.27342 4.97168 2.92204 7.53351 4.93287C9.03372 6.11166 9.40818 7.7805 9.33455 9.6615H0.88351C0.746552 13.0205 3.17064 15.0488 6.27001 14.0125C6.77238 13.8315 7.22204 13.5288 7.57876 13.1315C7.93548 12.7341 8.18813 12.2546 8.31409 11.7357C8.47797 11.2084 8.74793 11.1182 9.24351 11.2702C9.16076 11.9132 8.93334 12.5292 8.57835 13.0718C8.22335 13.6144 7.75001 14.0694 7.19389 14.4028C6.27516 14.9056 5.22093 15.1049 4.18204 14.9723C3.14315 14.8396 2.17285 14.3817 1.40997 13.6642C0.655782 12.8149 0.199856 11.7423 0.111635 10.6099C0.111635 10.4239 0.048302 10.2497 0.00555204 10.0827C0.00169071 9.77683 -0.000156554 9.47098 1.0376e-05 9.16512L0.00159371 9.16433ZM0.893802 8.93791H8.53655C8.48905 6.50275 6.95243 4.77533 4.9028 4.7595C2.62122 4.72783 0.988802 6.41725 0.88826 8.92683L0.893802 8.93791Z" fill="black"/>
</g>
<defs>
<clipPath id="clip0_208_170">
<rect width="19" height="19" fill="white"/>
</clipPath>
</defs>
</svg>
