<svg xmlns="http://www.w3.org/2000/svg" width="404.45099mm" height="87.006889mm" viewBox="0 0 404.45099 87.006889"><g style="stroke-width:.253992"><path d="M378.202 203.587H163.753v.382h214.449z" style="fill:#7d7d7d;fill-opacity:1;fill-rule:nonzero;stroke:none;stroke-width:.253992" transform="matrix(1.38893 0 0 -1.38893 -120.846 349.873)"/><g style="stroke-width:.253992"><path d="m0 0-15.524-4.159-9.077 33.871 15.526 4.16z" style="fill:#0096b8;fill-opacity:1;fill-rule:nonzero;stroke:none;stroke-width:.253992" transform="matrix(1.38893 0 0 -1.38893 86.998 68.613)"/></g><g style="stroke-width:.253992"><path d="m0 0-4.161 15.527 33.872 9.075 4.16-15.525z" style="fill:#306b9c;fill-opacity:1;fill-rule:nonzero;stroke:none;stroke-width:.253992" transform="matrix(1.38893 0 0 -1.38893 18.388 87.007)"/></g><g style="stroke-width:.253992"><path d="m0 0-4.16 15.525 33.871 9.077 4.161-15.527Z" style="fill:#e0af75;fill-opacity:1;fill-rule:nonzero;stroke:none;stroke-width:.253992" transform="matrix(1.38893 0 0 -1.38893 27.344 34.17)"/></g><g style="stroke-width:.253992"><path d="m0 0-15.525-4.16-9.077 33.872 15.526 4.159z" style="fill:#e4615b;fill-opacity:1;fill-rule:nonzero;stroke:none;stroke-width:.253992" transform="matrix(1.38893 0 0 -1.38893 34.17 59.662)"/></g><g style="stroke-width:.253992"><path d="M0 0h-3.435v-1.04h1.091v-7.188h1.212v7.188H0Z" style="fill:#7d7d7d;fill-opacity:1;fill-rule:nonzero;stroke:none;stroke-width:.253992" transform="matrix(1.38893 0 0 -1.38893 380.74 73.446)"/></g><g style="stroke-width:.253992"><path d="m0 0-.723 7.837h-1.251L-.961-.385H.75l1.01 8.222H.718Z" style="fill:#7d7d7d;fill-opacity:1;fill-rule:nonzero;stroke:none;stroke-width:.253992" transform="matrix(1.38893 0 0 -1.38893 321.77 84.339)"/></g><g style="stroke-width:.253992"><path d="M0 0v1.038h-2.949v-8.235H0v1.04h-1.746v3.02h1.69v1.04h-1.69V0Z" style="fill:#7d7d7d;fill-opacity:1;fill-rule:nonzero;stroke:none;stroke-width:.253992" transform="matrix(1.38893 0 0 -1.38893 335.387 74.902)"/></g><g style="stroke-width:.253992"><path d="M0 0c0-.388-.222-.546-.558-.546-.384 0-.586.21-.586.546v1.667h-1.223V.142c0-1.119.579-1.894 1.782-1.894 1.173 0 1.831.742 1.831 1.872C1.33 1.416.981 1.794.981 1.794.881 2.108.2 2.851.2 2.851c-.23.285-.986 1.141-.986 1.141-.286.359-.328.696-.328.696-.085.326-.03.666-.03.666 0 .385.237.545.574.545.357 0 .558-.252.541-.545V3.946h1.225v1.153c0 1.117-.579 1.892-1.781 1.892-1.174 0-1.782-.761-1.782-1.892 0 0-.021-.306.027-.702 0 0 .047-.564.502-1.15 0 0 1.268-1.412 1.495-1.696 0 0 .488-.538.343-1.551" style="fill:#7d7d7d;fill-opacity:1;fill-rule:nonzero;stroke:none;stroke-width:.253992" transform="matrix(1.38893 0 0 -1.38893 358.308 82.885)"/></g><g style="stroke-width:.253992"><path d="M0 0v-6.793c0-.388-.236-.546-.576-.546-.382 0-.543.21-.543.546V0H-2.34v-6.651c-.115-1.119.576-1.894 1.782-1.894 1.176 0 1.894.762 1.778 1.894V0Z" style="fill:#7d7d7d;fill-opacity:1;fill-rule:nonzero;stroke:none;stroke-width:.253992" transform="matrix(1.38893 0 0 -1.38893 287.38 73.45)"/></g><g style="stroke-width:.253992"><path d="M0 0v-7.126L-1.184 0h-1.8v-8.237h.985V-.62l1.272-7.617H.984V0Z" style="fill:#7d7d7d;fill-opacity:1;fill-rule:nonzero;stroke:none;stroke-width:.253992" transform="matrix(1.38893 0 0 -1.38893 301.021 73.45)"/></g><path d="M311.594 199.019h-1.214v-8.237h1.214zM352.662 199.019h-1.211v-8.237h1.211z" style="fill:#7d7d7d;fill-opacity:1;fill-rule:nonzero;stroke:none;stroke-width:.253992" transform="matrix(1.38893 0 0 -1.38893 -120.846 349.873)"/><g style="stroke-width:.253992"><path d="M0 0h-1.14l-.759-3.883L-2.679 0h-1.269l1.366-5.292v-2.957h1.214v2.957z" style="fill:#7d7d7d;fill-opacity:1;fill-rule:nonzero;stroke:none;stroke-width:.253992" transform="matrix(1.38893 0 0 -1.38893 392.08 73.46)"/></g><g style="stroke-width:.253992"><path d="M0 0c.473 0 .579.349.591 1.132C.605 1.846.516 2.379 0 2.379l-.526.006V.006Zm-.526-.962v-3.909h-1.211v8.237l1.94.001c1.097 0 1.622-.605 1.622-1.879 0-1.203-.297-1.91-1.539-1.91l.113-.003c.806 0 1.406-.316 1.406-1.39l-.009-2.056s-.056-.639.174-.997H.714s-.142.254-.129 1.193l.003 1.786c0 .533-.231.888-.644.916z" style="fill:#7d7d7d;fill-opacity:1;fill-rule:nonzero;stroke:none;stroke-width:.253992" transform="matrix(1.38893 0 0 -1.38893 345.17 78.125)"/></g><g style="stroke-width:.253992"><path d="M0 0h-3.435v-1.041h1.09V-8.23h1.213v7.189H0Z" style="fill:#7d7d7d;fill-opacity:1;fill-rule:nonzero;stroke:none;stroke-width:.253992" transform="matrix(1.38893 0 0 -1.38893 215.201 73.442)"/></g><g style="stroke-width:.253992"><path d="m0 0 .431 4.646L.854 0Zm1.148-3.189h1.254l-1.01 8.221H-.322l-1.01-8.221h1.039l.198 2.149H.948z" style="fill:#7d7d7d;fill-opacity:1;fill-rule:nonzero;stroke:none;stroke-width:.253992" transform="matrix(1.38893 0 0 -1.38893 201.017 80.443)"/></g><g style="stroke-width:.253992"><path d="m0 0 .426 4.646L.853 0Zm1.147-3.189h1.255L1.391 5.032H-.32l-1.013-8.221h1.039l.2 2.149H.949z" style="fill:#7d7d7d;fill-opacity:1;fill-rule:nonzero;stroke:none;stroke-width:.253992" transform="matrix(1.38893 0 0 -1.38893 258.752 80.443)"/></g><g style="stroke-width:.253992"><path d="M0 0c0 .337-.159.542-.545.542-.333 0-.573-.155-.573-.542v-5.398c0-.337.159-.544.544-.544.337 0 .574.158.574.544zm1.224-5.258c0-1.129-.61-1.892-1.782-1.892-1.202 0-1.782.777-1.782 1.892v5.001c0 1.132.609 1.893 1.782 1.893 1.202 0 1.782-.776 1.782-1.893z" style="fill:#7d7d7d;fill-opacity:1;fill-rule:nonzero;stroke:none;stroke-width:.253992" transform="matrix(1.38893 0 0 -1.38893 234.743 75.385)"/></g><g style="stroke-width:.253992"><path d="M0 0v-7.127L-1.182 0h-1.799v-8.235h.986v7.614l1.269-7.614H.986V0Z" style="fill:#7d7d7d;fill-opacity:1;fill-rule:nonzero;stroke:none;stroke-width:.253992" transform="matrix(1.38893 0 0 -1.38893 190.685 73.449)"/></g><g style="stroke-width:.253992"><path d="M0 0v-7.127L-1.185 0h-1.796v-8.235h.984v7.614l1.268-7.614H.983V0Z" style="fill:#7d7d7d;fill-opacity:1;fill-rule:nonzero;stroke:none;stroke-width:.253992" transform="matrix(1.38893 0 0 -1.38893 248.423 73.449)"/></g><path d="M248.054 199.02h-1.212v-8.235h1.212z" style="fill:#7d7d7d;fill-opacity:1;fill-rule:nonzero;stroke:none;stroke-width:.253992" transform="matrix(1.38893 0 0 -1.38893 -120.846 349.873)"/><g style="stroke-width:.253992"><path d="M0 0v7.19h-1.21v-8.228h2.973V0Z" style="fill:#7d7d7d;fill-opacity:1;fill-rule:nonzero;stroke:none;stroke-width:.253992" transform="matrix(1.38893 0 0 -1.38893 270.846 83.436)"/></g><g style="stroke-width:.253992"><path d="m0 0 .427 4.646L.854 0Zm1.146-3.184h1.257L1.391 5.035H-.321l-1.012-8.219h1.041l.196 2.146H.949z" style="fill:#7d7d7d;fill-opacity:1;fill-rule:nonzero;stroke:none;stroke-width:.253992" transform="matrix(1.38893 0 0 -1.38893 123.291 80.458)"/></g><g style="stroke-width:.253992"><path d="m0 0 .426 4.646L.854 0Zm1.146-3.184h1.255L1.389 5.035H-.323l-1.011-8.219h1.043l.196 2.146H.95Z" style="fill:#7d7d7d;fill-opacity:1;fill-rule:nonzero;stroke:none;stroke-width:.253992" transform="matrix(1.38893 0 0 -1.38893 160.643 80.458)"/></g><g style="stroke-width:.253992"><path d="M0 0v-7.126L-1.186 0h-1.796v-8.235h.983v7.614L-.73-8.235H.983V0Z" style="fill:#7d7d7d;fill-opacity:1;fill-rule:nonzero;stroke:none;stroke-width:.253992" transform="matrix(1.38893 0 0 -1.38893 137.878 73.458)"/></g><g style="stroke-width:.253992"><path d="M0 0h-3.434v-1.041h1.09V-8.23h1.214v7.189H0Z" style="fill:#7d7d7d;fill-opacity:1;fill-rule:nonzero;stroke:none;stroke-width:.253992" transform="matrix(1.38893 0 0 -1.38893 174.827 73.442)"/></g><g style="stroke-width:.253992"><path d="M0 0c0 .532-.23.886-.644.916l-.471.011v-2.973H-.6c.471 0 .587.347.628 1.131C.048-.457 0 0 0 0m1.261-1.07C1.178-2.273.926-2.979-.315-2.979l-2.013-.003v8.235l1.94.004c1.1 0 1.624-.605 1.624-1.882 0-1.201-.294-1.906-1.538-1.906l.114-.007c.806 0 1.443-.507 1.443-1.393 0 0 .013-1.025.006-1.139M-.588 1.89c.47 0 .579.345.59 1.131.014.712-.076 1.247-.59 1.247l-.527.005v-2.38z" style="fill:#7d7d7d;fill-opacity:1;fill-rule:nonzero;stroke:none;stroke-width:.253992" transform="matrix(1.38893 0 0 -1.38893 150.304 80.754)"/></g><g style="stroke-width:.253992"><path d="M0 0v-3.146h-1.055V0h-1.21v-8.236h1.21v4.049H0v-4.049h1.211V0Z" style="fill:#7d7d7d;fill-opacity:1;fill-rule:nonzero;stroke:none;stroke-width:.253992" transform="matrix(1.38893 0 0 -1.38893 112.653 73.424)"/></g><g style="stroke-width:.253992"><path d="M0 0h-2.494v6.194h-2.813V-9.159h2.813v6.01H0Z" style="fill:#7d7d7d;fill-opacity:1;fill-rule:nonzero;stroke:none;stroke-width:.253992" transform="matrix(1.38893 0 0 -1.38893 245.307 31.844)"/></g><path d="M252.602 223.663h-6.083v4.125h6.083zm2.797 10.899h-2.797v-3.719h-6.083v3.719h-2.798v-13.977h11.678z" style="fill:#7d7d7d;fill-opacity:1;fill-rule:nonzero;stroke:none;stroke-width:.253992" transform="matrix(1.38893 0 0 -1.38893 -120.846 349.873)"/><g style="stroke-width:.253992"><path d="M0 0v1.671h12.901v2.881H0v1.66h12.901v2.871H-2.801v-12.05h15.994V0Z" style="fill:#7d7d7d;fill-opacity:1;fill-rule:nonzero;stroke:none;stroke-width:.253992" transform="matrix(1.38893 0 0 -1.38893 223.96 58.802)"/></g><g style="stroke-width:.253992"><path d="M0 0v-8.311h-2.197V0h-2.795v-18.747h-7.686v14.839h5.224v3.161h-8.026v-21.188h10.488v-7.146h2.795v17.613H0v-17.613h2.794V0Z" style="fill:#7d7d7d;fill-opacity:1;fill-rule:nonzero;stroke:none;stroke-width:.253992" transform="matrix(1.38893 0 0 -1.38893 275.552 23.659)"/></g><g style="stroke-width:.253992"><path d="M0 0v14.367h-2.799V0h-2.714v14.367h-2.802V0h-3.824v-3.161H7.227V0Z" style="fill:#7d7d7d;fill-opacity:1;fill-rule:nonzero;stroke:none;stroke-width:.253992" transform="matrix(1.38893 0 0 -1.38893 341.603 56.76)"/></g><g style="stroke-width:.253992"><path d="M0 0h-16.329v-3.161h13.532v-17.227H0Z" style="fill:#7d7d7d;fill-opacity:1;fill-rule:nonzero;stroke:none;stroke-width:.253992" transform="matrix(1.38893 0 0 -1.38893 349.647 24.7)"/></g><g style="stroke-width:.253992"><path d="M0 0c2.024 0 3.39 1.481 3.39 3.727 0 2.265-1.371 3.73-3.39 3.73-2.018 0-3.389-1.465-3.389-3.73C-3.389 1.485-2.023 0 0 0m-6.116 3.67c0 4.023 2.468 6.663 6.116 6.663 3.643 0 6.118-2.64 6.118-6.663C6.118-.336 3.643-2.99 0-2.99c-3.631 0-6.116 2.654-6.116 6.66" style="fill:#7d7d7d;fill-opacity:1;fill-rule:nonzero;stroke:none;stroke-width:.253992" transform="matrix(1.38893 0 0 -1.38893 189.139 43.822)"/></g><g style="stroke-width:.253992"><path d="M0 0v6.714h-2.806v-9.869h16.631V0Z" style="fill:#7d7d7d;fill-opacity:1;fill-rule:nonzero;stroke:none;stroke-width:.253992" transform="matrix(1.38893 0 0 -1.38893 186.984 58.54)"/></g><g style="stroke-width:.253992"><path d="M0 0h-2.455v8.184h-2.797v-19.799h2.797v8.461H0Z" style="fill:#7d7d7d;fill-opacity:1;fill-rule:nonzero;stroke:none;stroke-width:.253992" transform="matrix(1.38893 0 0 -1.38893 208.945 34.54)"/></g><g style="stroke-width:.253992"><path d="M0 0v2.189h-2.799V0h-4.829v-3.008H4.935V0Z" style="fill:#7d7d7d;fill-opacity:1;fill-rule:nonzero;stroke:none;stroke-width:.253992" transform="matrix(1.38893 0 0 -1.38893 191.11 25.435)"/></g><g style="stroke-width:.253992"><path d="M0 0c2.024 0 3.391 1.481 3.391 3.727 0 2.265-1.371 3.73-3.391 3.73-2.018 0-3.39-1.465-3.39-3.73C-3.39 1.485-2.022 0 0 0m-6.117 3.67c0 4.023 2.469 6.663 6.117 6.663 3.642 0 6.117-2.64 6.117-6.663C6.117-.336 3.642-2.99 0-2.99c-3.63 0-6.117 2.654-6.117 6.66" style="fill:#7d7d7d;fill-opacity:1;fill-rule:nonzero;stroke:none;stroke-width:.253992" transform="matrix(1.38893 0 0 -1.38893 299.046 43.822)"/></g><g style="stroke-width:.253992"><path d="M0 0v2.189h-2.798V0h-4.83v-3.008H4.938V0Z" style="fill:#7d7d7d;fill-opacity:1;fill-rule:nonzero;stroke:none;stroke-width:.253992" transform="matrix(1.38893 0 0 -1.38893 301.016 25.435)"/></g><g style="stroke-width:.253992"><path d="M0 0h-2.702v6.908h-2.799v-18.445h2.799v8.376H0Z" style="fill:#7d7d7d;fill-opacity:1;fill-rule:nonzero;stroke:none;stroke-width:.253992" transform="matrix(1.38893 0 0 -1.38893 318.734 32.776)"/></g><g style="stroke-width:.253992"><path d="M0 0v-3.167h14.345v-6.499h2.799V0Z" style="fill:#7d7d7d;fill-opacity:1;fill-rule:nonzero;stroke:none;stroke-width:.253992" transform="matrix(1.38893 0 0 -1.38893 291.17 50.611)"/></g><g style="stroke-width:.253992"><path d="M0 0v3.036h-10.297v2.719h9.536v8.575h-12.34v-3.05h9.548V8.798h-9.548V0Z" style="fill:#7d7d7d;fill-opacity:1;fill-rule:nonzero;stroke:none;stroke-width:.253992" transform="matrix(1.38893 0 0 -1.38893 162.416 44.58)"/></g><path d="M209.066 219.242h-2.796v15.933h2.796zM206.266 209.756H194.93v2.983h11.336zm0 6.13H194.93v2.455h-2.792v-11.743h16.931v11.743h-2.803z" style="fill:#7d7d7d;fill-opacity:1;fill-rule:nonzero;stroke:none;stroke-width:.253992" transform="matrix(1.38893 0 0 -1.38893 -120.846 349.873)"/><g style="stroke-width:.253992"><path d="M0 0v3.18h-1.12v9.99h-17.453V9.983h14.65V3.18h-15.22V0h8.053v-4.583h-7.891v-3.18h15.308v-7.485h2.795v10.665h-7.418V0Z" style="fill:#7d7d7d;fill-opacity:1;fill-rule:nonzero;stroke:none;stroke-width:.253992" transform="matrix(1.38893 0 0 -1.38893 133.431 41.743)"/></g></g></svg>