<svg width="388" height="104" viewBox="0 0 388 104" fill="none" xmlns="http://www.w3.org/2000/svg">
<g clip-path="url(#clip0_4924_30650)">
<path d="M79.7188 65.9473L79.6689 22.0158L39.8594 0L0 22.0958L0.0499241 66.0273L33.8785 84.6437V102.52H45.8403V84.6837L79.7188 65.9573V65.9473ZM11.9918 59.4286L11.9618 28.4045L39.8294 13.2674L67.727 28.5045L67.757 59.5086L45.8303 71.4963V42.1419H33.8685V71.4762L11.9818 59.4386L11.9918 59.4286Z" fill="#0085CF"/>
<path d="M158.969 102.52H147.985V66.0074C147.985 52.32 159.108 41.1821 172.778 41.1821H179.268V52.18H172.778C165.159 52.18 158.969 58.3888 158.969 66.0074V102.52Z" fill="#0085CF"/>
<path d="M210.899 104C194.084 104 180.405 89.6228 180.405 71.9462C180.405 54.2696 194.084 39.8923 210.899 39.8923C225.916 39.8923 238.407 51.2102 240.933 66.3372C241.283 68.4468 241.363 70.5964 241.303 72.736L241.203 76.2753H191.808C193.665 85.8135 201.523 93.0021 210.899 93.0021C216.68 93.0021 222.132 90.2527 225.856 85.4636C226.246 84.9637 226.615 84.4438 226.955 83.9039L236.2 89.8427C235.681 90.6526 235.122 91.4524 234.523 92.2123C228.702 99.7008 220.095 104 210.899 104ZM192.397 65.2775H229.421C226.845 56.8691 219.516 50.8902 210.899 50.8902C202.282 50.8902 194.983 56.9291 192.397 65.2775Z" fill="#0085CF"/>
<path d="M278.047 104C261.233 104 247.554 89.6228 247.554 71.9462C247.554 54.2696 261.233 39.8923 278.047 39.8923C293.065 39.8923 305.556 51.2102 308.082 66.3372C308.431 68.4468 308.511 70.5964 308.451 72.736L308.351 76.2753H258.956C260.814 85.8135 268.672 93.0021 278.047 93.0021C283.829 93.0021 289.28 90.2527 293.005 85.4636C293.394 84.9637 293.763 84.4438 294.103 83.9039L303.349 89.8427C302.83 90.6526 302.271 91.4524 301.671 92.2123C295.85 99.7008 287.243 104 278.047 104ZM259.545 65.2775H296.569C293.993 56.8691 286.664 50.8902 278.047 50.8902C269.43 50.8902 262.132 56.9291 259.545 65.2775Z" fill="#0085CF"/>
<path d="M133.337 91.5225C124.451 91.5225 117.212 84.2839 117.212 75.3756V53.1299H136.932V42.132H117.212V22.0159H106.229V75.3756C106.229 90.3427 118.39 102.52 133.337 102.52C133.447 102.52 135.684 102.52 138.08 102.3V91.2426C135.953 91.5125 133.367 91.5225 133.337 91.5225Z" fill="#0085CF"/>
<path d="M350.557 22.0159H320.123V104H350.557C371.205 104 388 87.1833 388 66.5073V59.5087C388 38.8326 371.205 22.0159 350.557 22.0159ZM370.297 68.8569C370.297 79.6648 361.52 88.4531 350.727 88.4531H337.107V37.5629H350.727C361.52 37.5629 370.297 46.3512 370.297 57.1591V68.8569Z" fill="#0085CF"/>
</g>
<defs>
<clipPath id="clip0_4924_30650">
<rect width="388" height="104" fill="white"/>
</clipPath>
</defs>
</svg>
